<?xml version="1.0" encoding="UTF-8"?>
<svg enable-background="new 0 0 592.502 479.91" viewBox="0 0 592.502 479.91" xmlns="http://www.w3.org/2000/svg">
 <path d="m45.141,202.327c.18-1.66.31-3.37 2.16-3.36 .75,1.83.79,3.04.24,5.28-.88.31-1.3-1.68-2.4-1.92z" fill="#a1845a"/>
 <path d="m64.591,218.007c-.29.6-.62,1.21-.97,1.84-1.27,2.27-4.08,3.78-3.6,6.72-1.35,1.11-1.68,7.2-1.68,7.2 1.04-.91 1.38-2.27 1.92-3.36 3.96.47 3.18,6.42 2.88,9.84-1.22,1.221-2.53-.109-4.56-.24-3.9-.239-9.39,1.131-11.28-1.2-4.17-.22-6.04-3.9-8.64-6-2.2-1.78-4.98-3.02-6.24-6 2.33-.41 4.22,2.15 6.96,2.64 2.64.47 4.59,1.62 7.44,1.44-2.93-1.57-2.43-1.15-5.6-2.32-3.16-1.16-4.82-1.16-6.5-2.84-1.54-.3-2.76-1.42-3.74-2.28 .63-5.81 4.24-10.91 7.2-15.12 1.47-2.1 3.92-6.69 6.96-3.12-1.77,5.15-6.98,9.32-6.48,13.92 3.56-2.28 5.94-10.75 9.6-12.96 1.73-1.04 5.86-.23 6,1.92 .07,1.08-1.05,1.5-1.68,2.4-.95,1.36-1.54,3.63-2.64,5.28-.69,1.04-1.9,1.62-2.4,2.4-1.17,1.83-1.3,3.91-2.16,6 2.49.26 2.77-3.37 4.32-5.52 .6-.83 1.81-1.47 2.4-2.4 2.42-3.84 3.72-9.41 9.36-5.76-2.4,4.96-6.58,8.14-7.2,14.88 2.23-1.13 2.34-4.38 4.32-5.76-.06-.86.44-1.16.48-1.92 2.04-1.4 2.52-4.36 4.56-5.76 .21-.02.41-.02.6-.01 1.04.04 1.71.45 2.52.73-.58,1.88-1.25,3.561-2.15,5.36z" fill="#a1845a"/>
 <path d="m63.141,224.167c.7,1.19-.73,2.8-.24,5.28-.54-.26-1.06-.54-1.44-.96 .75-1.25.71-3.29 1.68-4.32z" fill="#b1b5b9"/>
 <path d="m201.381,460.808c-.92.229-1.82.68-2.71,1.26l-2.31-.95c2.36-1.41 4.37-2.979 5.26-5.35 5.76-3.84 15.19-3.391 21.36-7.2 1.5,2-.06,4.45-.24,7.2-5.04,4.72-12.04,7.479-21.12,8.16 .97-1.99 3.9-2.021 5.28-3.601-2.56.41-3.5-.03-5.52.481z" fill="#7a7b7e"/>
 <path d="m29.061,224.407c-10.59,4.44-20.49-3.36-26.64-8.64 .43-4.55.27-9.16.48-13.68 .14-3.13.54-5.32 1.42-7.21l.82.35c-.86,2.12 1.37,2.46 3.04,3.5 2.69,1.67 8.6,6.97 10.32,3.6l2.58-1.03c.17.35.42.62.54,1.03 2.53-.92 4.24-3.4 6.48-5.04 2.02-1.48 4.22-2.61 4.8-4.8 .01-.41-.18-.62-.48-.72l.34-1.07c.95.54 1.75,1.07 2.3,1.55 1.07.94 2.92,2.96 3.12,3.36 1.58,3.24 1.54,8.01-.72,9.84-1.76-.88-3.1-1.19-4.56.48-.83.95-2.5,3.54-2.64,4.32-.29,1.59.04,4.36 1.92,4.32-1.06,3.48-3.78,5.92-3.12,9.84zm-12.72-17.52c.1,6.81-1.98,12.95 1.92,16.8-.67-5.9 1.27-12.02-1.2-17.04-.04.28-.38.26-.72.24z" fill="#2d2d2e"/>
 <path d="m32.421,191.767c-4.66,1.33-8.27,5.17-11.52,8.64-.02.38.06.66.18.89l-2.58,1.03c-4.41-2.47-7.72-6.04-13.2-7.44-.06.12-.11.23-.16.34l-.82-.35c.7-1.51 1.71-2.84 3.14-4.31 2.55-2.62 4.54-4.07 7.2-6 1.1.4 3.26-1.61 5.04-.96 1.89.69 4.29,2.63 7.68,4.32 1.84.92 3.81,1.87 5.38,2.77l-.34,1.07z" fill="#2d2d2e"/>
 <path d="m146.631,472.607c4.76,2.399 14.5.74 19.71.2 2.07-.21 4.04-.46 5.76-.96 1.53-.45 2.7-1.681 4.32-2.16 .86-.26 2.01-.061 2.88-.24 3.99-.84 8.03-2.979 11.28-5.04 1.9-1.2 3.94-2.2 5.78-3.29l2.31.95c-3.16,2.06-6.22,5.84-10.01,7.86-4.77,2.55-12.44,6.149-19.2,6.72-2.3.189-4.03-.33-6.48-.24-3.49.13-6.72,1.16-10.08.72-2.07-.27-4.07-1.31-6.24-1.92-.21-.06-.41-.109-.62-.149l.59-2.451z" fill="#7a7b7e"/>
 <path d="m519.531,261.657c10.11-1.4 20.69-1.189 31.051-2.93 2.939-.49 6.479-1.521 8.399-1.2 1.4.229 3.97,2.03 5.521,2.88 2.04,1.12 3.97,1.84 5.52,2.88 4.62,3.11 10.91,10.51 12.96,15.601 .34.84.34,1.93.72,2.88 1.29,3.2 2.471,6.51 3.36,10.56 .58,2.641 1.18,5.28 1.68,7.92 2.2,11.55.58,21.53.24,32.641-.39,12.89-1.99,25.13-2.88,36.96-.56,7.38-2.15,14.14-3.12,20.88-.24,1.71-.56,3.49.11,5.22l-.29,1.16c-6.24-1.57-12.78,1.99-18.3,3.22-2.021-2.78-7.46-2.96-8.4-6.24-.8-2.77 1.021-8.229 1.44-11.52 1.58-12.521 3.13-22.65 5.279-33.6 .771-3.921 1.62-7.62 1.92-11.761 .881-12.2 1.19-26.029-1.199-36.72-3.08-13.75-11.851-24.67-22.561-30.48-2.79-1.51-5.26-1.539-8.64-1.68-1.601-.07-3.09-.66-4.561-.72-1.54-.061-3.04.47-4.56.479-4.36.03-8.26-.409-12.96-.239-16.19.569-31.59,3.33-48.96,5.52-16.19,2.04-32.37,2.64-48.72,4.08-2.021.18-4.051.4-6.08.65l-.36-2.96c1.46-.181 2.88-.37 4.28-.57 9.109-1.33 17.35-1.73 25.68-2.88 18.95-2.62 38.22-3.66 55.44-5.76 8.43-1.03 17.83-2.57 25.199-3.841 .922-.159 1.852-.3 2.792-.43zm26.011-.29c-.28.12-.54.26-.721.48-.14,3.189 7.08,6.189 9.84,8.399 3.311,2.641 7.521,6.021 9.601,9.12 5.75,8.561 7.939,21.41 8.399,33.601 .351,9.229.07,18.47-1.199,27.84-2.221,16.37-3.33,33.649-6.721,49.199-.35,1.62-1.83,4.591.24,6 4.72-13.01 5.13-29.239 6.72-43.68 .54-4.92 1.94-9.82 2.4-14.64 .91-9.54 1.08-18.29.48-27.12-.801-11.83-2.721-25.08-8.881-33.6-2.229-3.091-5.869-5.961-9.119-8.641-3.2-2.637-7.41-5.218-11.039-6.958z" fill="#bebcc0"/>
 <path d="m269.241,200.377c-1.6,3.83-.33,9.44-.42,13.95-.78.59-1.45-1.25-2.16-1.92-1.41-1.32-3.64-2.27-5.28-3.12 1.04,2.64 5.1,4.34 6.96,6.96 1.44,5.07-.65,10.1-.96,15.36-.06,1.02.33,1.96.24,2.88-.22,2.34-1.48,3.92-2.16,6.24-.18.62.04,1.529-.24,2.16-.71,1.6-2.63,2.77-3.6,4.319-1.18,1.891-1.32,3.71-2.4,5.521-.03-9.69-4.35-17.1-9.17-23.09-.38-.47-.77-.94-1.15-1.39-2.71-3.2-4.39-6.13-8.88-7.2 8.96-6.16 15.75-14.49 23.04-22.32 2.01-.26 4.86-1.25 6.96.24-.32.43-.57.91-.78,1.41z" fill="#d98a30"/>
 <path d="m564.261,239.047c2.6,3.91 1.689,10.91-.48,15.36-.229-.01-.449-.02-.68-.02-4.7-.04-9.13,1.239-13.72,1.939-5.11.78-10.37.73-15.84,1.44-4.7.609-9.42,1.46-14.25,2.13l-2.07.27c-3.05.38-6.061.24-9.12.721-24.94,3.92-53.76,6.399-79.68,9.119-12.03,1.261-23.96,3.551-35.761,3.841-1.409.029-2.72-.28-4.079-.24-3.33.11-6.721,1.1-10.08,1.439-6.65.66-13.521,1.101-20.641,1.681-3.45.279-6.689,1.29-10.08,1.68-13.069,1.521-26.42,2.04-39.359,2.88-4,.26-8.021.01-12.001.24-2.079.12-4.239.76-6.479.96-9.42.86-22.65,1.96-33.36,3.6-4.43.681-8.79,2.29-12.96,2.4-7.17.19-12.23-2.8-17.28-5.28 2.85-.5 5.59-2.25 8.64-2.88 2-.41 4.2-.13 6.24-.479 2.56-.44 7.7-1.67 10.08-2.88 2.02-1.021 3.1-3.54 5.28-4.08 1.76-.44 4.52.02 5.76-.24 1.38-.3 2.46-1.41 3.84-1.92 1.28-.471 2.81-.641 4.08-.96 6.93-1.75 13.67-4.07 19.93-6.931 1.55-.689 3.06-1.42 4.55-2.189 6.08-7.2 13.58-12.98 15.12-24.72 13.13-2 28.67-3.21 42-2.88 5.771.14 11.86-.93 17.521-1.68 6-.8 11.84-1.01 18-1.44 9.99-.7 19.8-1.9 30-2.64 6.439-.47 12.95-.38 19.439-.72 6.21-.32 12.5-1 18.721-.48 1.729-1.36 3.79-.55 5.76-.72 4.62-.4 9.28-1.94 14.16-2.4 2.62-.25 5.46-.02 8.16-.24 2.93-.24 5.819-.82 8.64-.96 3.76-.19 7.479.42 11.04,0 3.37-.4 5.92-1.51 8.88-1.2 1.89.2 3.67,1.56 5.76.96 10.91,3.72 23.641,7.87 35.76,12.24 3.249,1.17 9.059,3.029 10.559,5.279zm-17.04,1.44c1.39-.02 3.77,1.03 4.8-.48-2.939-1.399-8.6-1.54-13.439-1.439-4.471,1.77-11.94,1.66-18.721,2.4-18.81,2.069-37.08,3.699-57.6,5.279-9.021.69-18.55,2.99-28.32,3.601-10.37.649-20.729,2.3-30.96,2.88-19.08,1.08-37.49,4.069-54.72,5.279-7.04.49-11.78.931-17.521,1.44-4.02.36-8.21.19-12.239.72-2.591.34-4.771,1.41-7.2,1.681-2.55.29-5.351.319-7.92.72-2.48.39-5.471.03-7.2,1.92 1.62.91 3.96.43 6.24,0 2.5-.47 5.069-.47 7.68-.72 2.56-.24 5.01-1.17 7.68-1.44 3.591-.37 7.37.04 11.28-.24 4.64-.33 9.48-1.369 14.4-1.68 6-.38 12.189-.5 18.239-1.2 3.021-.35 6.11-.79 9.12-.96 4.96-.27 9.561-1.58 13.2-.24 1.89-1.71 4.59-1.31 6.96-1.68 12.29-1.91 26.07-2.67 39.84-3.84 10.92-.93 21.9-2.73 33.12-3.6 19.62-1.521 39.32-4.11 58.32-5.521 2.82-.21 5.77-.12 8.399-.479 5.522-.75 11.112-2.341 16.562-2.401z" fill="#af3327"/>
 <path d="m472.292,273.888 .05.439c-2.16.78-2.26,4.271-2.641,6.48-.47,2.72-.8,5.8-.96,8.16-1.31,19.489-2.85,41.27-5.52,60-6.71-.54-11.05,3.119-16.561,4.56-1.789-1.41-3.789-2.61-4.8-4.8 1.34-13.561 3.48-26.91 4.32-41.76 .43-7.5.05-17.341.96-24.48 .24-1.88 1.23-3.57 1.2-5.28 1.01-.22 3.359-.45 5.28-.479-.94,4.92-.73,9.89-1.2,14.88-.761,8.12-2.37,16.27-2.641,24.72-.069,2.19.38,4.26.24,6.48-.42,6.87-1.399,13.649-2.16,20.16-.189,1.579-1.29,3.199 0,4.8 2.25-2.49 1.69-6.261 2.16-9.84 .23-1.721.95-3.4 1.2-5.04 .85-5.62.92-11.131 1.2-17.521 .6-13.75 3-25.27 3.12-37.92 .119-.1.18-.14.21-.17-.07.02-.681.39-.45-.31 5.162-1.67 11.052-2.34 16.993-3.079z" fill="#bebcc0"/>
 <path d="m406.141,275.138 .36,2.96c-9.061,1.109-18.221,2.649-27.761,2.229-11.72,2.33-23.909,2.15-34.89,3.12l-.18-2.38 .27-.021c5.87-.43 11.69-1.449 17.521-1.92 8.279-.659 17.42-2.52 24.72-2.64 6.8-.109 13.651-.589 19.96-1.348z" fill="#bebcc0"/>
 <path d="m343.671,281.067 .18,2.38c-4.99.45-9.729,1.13-14.07,2.4-10.529-.681-20.42,2.42-30.239,1.92-3.26,1.439-7.9,1.239-12.24,1.68-3.14.32-6.42.58-9.6.96-16.34,1.93-34.26,2.74-49.2,5.28-1.28-4.16-4.78-7.38-4.8-12 .28,1.41 1.12,2.1 1.92,2.64 3.17,2.141 10.33,4.37 14.64,4.8 5.21.53 9.29-1.09 13.68-1.92 13.01-2.46 30.15-3.979 42.72-4.319 2.66-.07 5.521-.271 8.16-.48 12.779-1.011 25.769-2.39 38.849-3.341z" fill="#bebcc0"/>
 <path d="m303.141,203.527c3.16,3.96 4.51,8.36 4.32,14.16-.08,2.33-.61,4.32-.48,6.48 .37,5.97 1.72,11.94-.479,17.52-1.95,4.95-5.63,9.13-8.88,12.96-1.48,1.75-3.26,3.52-5.041,4.8-.97.7-2.02,1.28-3.13,1.771-3.34,1.5-7.24,2.319-11.27,3.75-2.71.96-5.82,2.13-9.84,3.119-2.44.601-4.74,2.141-6.48,2.4-2.85.43-5.69-1.02-7.44.96-.02-.41.33-.86.84-1.27 .63-.511 1.53-.94 2.28-1.131 1.84-2.109 3.95-3.989 5.76-6.239 .91-1.12 1.67-2.41 2.64-3.36 .59-.58 1.59-.84 2.16-1.44 1.23-1.279 2.48-3.55 3.84-5.279 1.32-1.67 3.02-3.46 3.84-5.04 1.2-2.3 1.17-5.05 1.92-7.681 .37-1.29 1.36-2.669 1.92-4.08 1.4-3.56 1.61-5.92 3.6-8.88 2.24,1.52 3.07,4.45 5.76,5.52-.63-2.11-4.29-3.93-5.04-7.44-.28-1.3.13-3.43 0-5.28-.1-1.36-.6-2.79-.48-3.84 .4-3.43 3.57-5.19 5.28-7.2 3.23,1.28 5.67,3.15 8.64,2.16 3.25-1.08 3.65-4.73 5.76-7.44zm-10.56,53.76c-1.23-2.21-4.1-2.78-6.24-4.08 1.52,1.78 3.87,3.95 6.24,4.08z" fill="#d98a30"/>
 <path d="m303.861,200.167c-3.939.86-3.88,5.72-6.479,7.92-2.45,1.1-5.47-.88-8.64-2.4-7.22-3.46-13.78-8.15-21.6-10.32 1.08-2.81 4.09-3.96 6-6 3.83-4.09 6.79-8.95 10.08-13.92 3.19-4.83 6.11-9.74 8.88-15.36 5.059,12.22 8.929,25.63 11.759,40.08z" fill="#b1b5b9"/>
 <path d="m295.941,140.647c.931,6.33-2.72,12.06-5.52,17.28-1.42,2.64-2.57,5.48-4.08,8.16-3.92,6.93-9.48,16.24-14.64,21.6-2.19,2.28-5.08,3.89-7.2,6.24-4.23,4.69-7.99,9.67-12.72,14.16-4.39,4.16-8.11,8.67-13.68,11.76 .41-2.47 3.45-4.38 4.08-7.44-1.52.86-2.51,2.13-3.6,3.36-.93,1.05-2.39,2.28-3.36,3.84-1.03,1.65-1.12,3.81-1.68,5.76-.87,3-2.3,7.33-4.08,8.88-1.74,1.51-6.92,2.61-10.08,2.88-3.89.34-7.87.17-11.04.24-4.12.09-8.4.73-12.33,1.8-4.31,1.169-8.24,2.87-11.19,4.919-1.4.971-2.01,2.591-3.84,3.12-.81-.31-1.41-.83-1.92-1.439 1.6-5.761 8.74-5.98 12.24-9.84 3.47-.61 6.31-1.85 9.12-3.12-8.45-1.63-13.89,3.64-19.2,6.72 .81-1.42-.84-1.91-.72-3.6 .3-4.09 9.18-4.39 10.56-8.16-.57-1.38-2.43.49-4.08.24 .79-4.33 1.88-8.36 4.8-10.56 3.84-.35 7.89-1.15 12.48-1.2 4.04-.04 8.19,1.5 11.52.96 1.44-.24 2.07-1.42 3.36-2.16 .77-.44 1.6-.38 2.16-.72 1.88-1.14 2.92-3.03 4.56-4.32 2.39-6.09 3.23-12.48 6.72-17.52 3.34-4.82 6.36-9.76 10.32-13.2 2.12-6.18 5.99-11.45 8.64-18 1.4-3.45 1.16-7.44 2.16-11.28 .43-1.64 1.33-3.16 1.92-4.8 1.94-5.41 2.92-10.9 4.56-16.32-2.18,1.02-2.89,3.51-3.84,5.76-10.33-5.27-15.46-15.35-21.12-25.68-.73-1.33-2.02-2.52-2.64-3.84-1.51-3.18-1.92-6.96-4.08-9.6 2.29.11 2.81-.33 4.8-.72-7.02-2.78-18.66-3.66-23.04-9.84-1.68-2.37-2.89-6.55-4.08-9.6-1.34-3.42-2.58-6.7-3.36-10.32-.75-3.49-1.1-7.12-2.16-11.04-.87-3.22-2.83-8.11-2.64-10.8 .21-2.93 2.93-4.99 3.6-7.44 9.28-.55 20.34.07 28.56,2.88 7.4.57 12.52,5.14 17.52,9.36 2.17,1.83 4.63,4.06 6,6 3.92,5.56 5.38,12.79 9.84,18-.07,2.95 2.12,3.64 2.88,5.76 11.75,7.81 16.98,22.87 16.32,41.76 1.6-.16 1.21-2.31 1.92-3.36 3.47,8.03 9.98,15.66 11.28,24.48zm-5.04,6c-.05-.19-.01-.47-.24-.48-7.48,10.68-13.39,22.93-20.4,34.08 5.23-3.97 8.01-10.38 11.76-15.84 0-.64-.09-1.37.24-1.68 3.52-4.72 6.34-10.14 8.64-16.08zm-54.96,51.36c-1.34.06-3.63,1.15-4.08,2.88 2.11.71 2.87-1.9 4.08-2.88z" fill="#a1845a"/>
 <path d="m281.541,216.247c.03,3.33 1.18,6.83 0,10.32-.39,1.17-2.13,2.59-2.64,4.08-.41,1.17-.32,2.48-.72,3.6-.48,1.37-1.42,2.49-1.92,3.84-1.1,2.959-.89,6.15-2.16,8.64-.73,1.439-2.38,3.29-3.6,4.8-1.25,1.55-2.19,3.55-3.36,4.8-.69.74-1.92.97-2.64,1.68-1.37,1.36-2.4,3.421-3.84,5.04-1.97,2.221-3.82,4.33-6.48,6 .96-5.359 4.29-8.81 4.8-13.92 2.21-1.069 2.51-3.62 3.84-6 1.04-1.859 3.04-3.22 3.84-4.8 .5-1 .7-2.75 1.2-4.08 .5-1.34 1.27-2.7 1.44-3.84 .52-3.54.13-7.48.72-11.28 .78-4.96.93-11.17.72-17.52-.09-2.56-.83-4.72.07-6.88 .11-.27.25-.53.41-.8 6.07,1.69 9.91,5.61 15.6,7.68-1.6,2.94-5.31,4.46-5.28,8.64z" fill="#556f80"/>
 <path d="m250.821,233.527c4.24,5.94 8.61,16.9 5.04,26.4-.86,2.279-2.4,4.14-3.12,6.479-.82,2.7-.75,5.2-1.44,7.92-2.51.811-4.95,1.55-7.68,2.4-2.84.88-5.81.66-8.88,1.2-3.49.609-6.99,2.739-10.32,3.119-1.3-.34.45-2.239-.72-2.64-7.02,5.51 1.29,14.79 3.6,21.12 1.93,5.29 2.86,10.8 2.16,18-.22,2.31.02,4.77-.24,8.16-.63,8.33-5.14,15.47-7.92,23.76-2.74,8.18-3.24,17.51-5.28,26.4-2.02,8.8-3.51,17.609-5.76,25.92-4.26,3.31-16.94,4.689-22.32.96 1.92-8.09 3.6-16.08 3.6-24.96 0-4.69-1.82-9.08-2.64-13.92-.88-5.221-.22-12.7-.48-18.96-.25-5.87-.81-12.051-.72-17.521 .21-12.95 2.06-26.74 1.2-38.64-.05-.67-.11-1.51-.24-2.16-.75-3.68-1.91-8.08-3.36-11.76-2.03-5.15-4.61-9.41-4.32-15.601 .17-3.6 1.41-7.1 1.68-10.319 2.87-3.15 7.42-5.65 12.24-7.44 .51-.19 1.03-.36 1.58-.51 8.17-2.26 20.2-.42 27.94-2.37 7.76-1.95 9.75-7.36 11.76-15.6 .31-.08.38-.42.72-.48 5.58.41 8.87,4.07 11.87,8.16 .69.953 1.37,1.923 2.05,2.883zm-10.8,33.12c1.2.07 2.87.229 3.6-.96-6.1-.99-16.63-3.42-23.04-.24 .21,4.94-5.46,5.25-6,8.64 1.18.011 1.87-1.04 2.88-1.68 .96-.61 2.37-.99 3.12-1.92 1.34-1.67.98-3.83 3.12-4.32 4.94-1.12 11.32.19 16.32.48zm-16.08,63.6c1.26-5.16.78-12.18.48-17.279-.25-4.28-1.78-8.44-4.32-10.561h-.48c.04.28-.04.68.24.72 2.83,7.931 3.34,17.32 2.4,26.641-.33,3.279-1.7,6.729-.24,9.84-.37-3.371 1.4-7.241 1.92-9.361zm-22.32-38.64c2.07,1.59 6.3-.47 6.24-2.4-1.03,1.851-4.45,1.311-6.24,2.4zm-.48-22.32c-.28-.2-.64-.319-1.2-.24-.63,2.57-3.37,3.03-4.08,5.521 2.19-1.331 4.77-2.271 5.28-5.281zm-7.92,94.8c.03-.319.04-1.739-.24-.96-.03.32-.04,1.74.24.96z" fill="#a1845a"/>
 <path d="m255.861,136.327c-1.13,5.48-3.88,9.96-4.8,15.12-.53,2.96-.34,5.92-1.2,8.64-.66,2.09-2.19,4.05-3.36,6.24-2.35,4.39-3.82,8.73-6.48,12.72-1.9,2.85-4.37,5.23-6.24,8.16s-4.09,5.64-5.52,8.88c-11.15-.6-19.88-1.69-28.08-6-6.72-3.53-11.16-7.87-16.8-12.48-2.72-2.22-6.38-4.67-11.52-4.56-2.77-2.07-4.62-4.98-7.44-7.2-4.79-3.77-11.47-3.8-16.8-6.24-.6-1.68-.95-3.48-1.68-5.28-2.8-6.88-8.14-12.92-10.8-20.4-2.92-8.21-5.35-16.4-8.64-24.24 5.99-1.93 8.54-7.3 11.28-12.48 .96,1.28.88,2.8 1.44,4.08 3.83,8.75 14.55,7.99 21.6,2.64 4.65-5.76 11.03-11.03 14.16-18.96 1.45-3.66 2.49-8.3 3.36-12.72 1.98-10.06 2.42-22.11 2.64-33.36 5.92-.01 12.05-1.65 17.52-2.88-.75,3-3.52,5.35-2.64,9.84 .56,2.84 1.67,6.03 2.4,9.36 2.19,10.03 4.69,22.32 9.84,30.96 3.48,5.84 11.64,7.07 17.28,9.84 2.23,2.65 3.18,5.87 4.56,9.12 2.25,5.31 6.28,10.53 9.36,16.08 1.53,2.75 3.08,5.19 5.28,7.44 3.24,3.3 6.09,6.57 11.28,7.68z" fill="#b1b5b9"/>
 <path d="m227.061,198.967c-1,8.36-4.91,12.83-11.28,15.84-3.92-.52-12.35-.78-18.24-.48-2.07.11-5.4.05-6.72.72-.77.39-1.45,1.52-2.16,2.4-1.95,2.41-3.8,5.28-3.6,10.08-.23,1.03.95.65.96,1.44-3.93,1.43-7.88,2.84-7.68,8.4-.19.91 1.88,1.38 1.92,2.16 .04.92-3.32,3.55-3.36,5.28-.06,2.29 1.04,3.68 3.84,4.319-1.22,4.4-3.11,10.431-1.68,16.32-6.62-1.87-8.49-8.15-11.76-14.16-2.95-5.42-5.02-10.41-7.68-16.32-.48,5.52 2.15,10.01 3.84,14.16-.11.351-.21-.02-.48,0-11.34,3.561-20.28-.26-29.04-4.319 1.84-8.08 5.19-14.65 8.88-20.88 .61-2.9 1.15-5.57 1.77-8.12 .68-2.83 1.46-5.51 2.55-8.2 4.06,5.78 6.19,13.49 10.32,19.2-.55-7.65-5.5-14.95-9.12-21.12 2.54-3.86 3.9-8.9 4.8-14.4 4.72,5.28 8.83,11.17 12.24,17.76-.67-8.46-6.74-14.36-11.76-19.92 .62-2.79.56-4.82.48-8.16 1.75-.27 3.78.76 5.52.48 1.3-.21 2.15-1.71 3.36-1.92 3.16-.54 6.83,1.73 10.08,1.68 2.87-.05 4.39-1.43 6.96-2.64 2.57,1.27 4.05,3.63 6.48,5.04-.25,1.4 1.57,2.1 1.92,3.36 .43,1.55.34,3.27.72,5.04 .64,2.99 1.68,6.32 2.64,9.36 .96,3.07 1.65,6.49 3.6,8.4-.47-7.4-3.74-14.17-5.04-22.08 .78-.19 1.59.58 2.16.96 5.07,3.42 11.47,7.26 18.96,8.64 4.92.901 9.72.921 15.6,1.68zm-41.28-.96c.08-5.83-2.16-9.33-3.6-14.16h-.48c.58,4.68 2.17,10.04 4.08,14.16z" fill="#d98a30"/>
 <path d="m220.58 438.49c2.53 1.73 1.16 4.99 1.68 8.16-5.57 3.149-14.4 3.04-19.92 6.24 1.55-9.329 8.19-13.57 18.24-14.4z" fill="#343780"/>
 <path d="m218.901,420.728c.92,5.99 2.67,9.189 1.44,15.359-9.84,1.631-16.4,4.131-18.96,12.721-.37,1.229-.12,2.88-.72,4.56-1.41,3.97-8.27,7.7-12.24,9.601-3.14,1.5-4.85-1.961-8.16-3.36-4.9-2.07-14.32.439-19.2,0-7.63-.69-13.59-3.3-18.96-6 7.47-1.89 10.42-8.3 16.8-11.28 3.31,1.49 5.67,3.93 7.68,6.72 1.07-1.01-.1-3.1-.72-4.079-1.21-1.921-3.84-3.421-5.28-4.561 2.72-4.56 6.74,1.5 9.6,2.64 .99-3.5-4.08-5.01-6.24-6.96 .66-2.14 1.43-4.17 3.36-5.04 4.19,1.011 5.75,4.65 8.88,6.721 1.29-.4-.63-1.66.48-1.92-2.51-3.17-5.44-5.92-9.12-7.92 .26-.62.87-.891.96-1.681 .63-.069.62.5.72.96 .49-.39.98-.779 1.68-.96 5.81,1.351 15.92,1.311 20.64,4.8 1.65-3.18-3.44-5.51-6.48-6.96-3.21-1.54-6.78-3.85-9.6-3.84 .9-1.72 3.23-5.529 5.28-5.52 .95.01 1.73,1.51 2.64,1.92 3.27,1.49 10.03,1.729 12,4.32 1.61,5.149 5.74,8.92 12,8.64 .26,1.82.85,3.27 2.16,3.6 5.66,1.418 7.34-9.321 9.36-12.481zm-23.76,28.799c1.11-2.87.35-7.59-.96-9.6h-.72c.56,2.27 2,6.381 1.68,9.6zm-6.72,5.52c1.5-1.649.38-5.449-.48-6.96h-.72c.6,2.07 1.37,4.881 1.2,6.96z" fill="#8e94b7"/>
 <path d="m212.421,409.207c5.6-.239 9.08,4.71 6.96,8.641-3.09,1.439-3.43,5.229-5.28,8.64-.89,1.63-2.07,3.8-4.08,3.6-.37-1.09.92-.52 1.2-.96-3.59-3.649 2.67-7.409 3.36-11.279 .67-3.772-3.07-4.342-2.16-8.642zm2.4,1.44c.07-.63-.33-.79-.96-.72-.08.319-.34.46-.24.96 .68.2.62-.34 1.2-.24z" fill="#343780"/>
 <path d="m212.661,416.647c.31,3.14-5.29,5.84-5.04,10.32-1.96-.091-4.27-.171-6-1.2-2.24-1.34-2.7-4.681-4.56-6.721-3.73-4.079-10.1-3.159-15.6-6 1.03-3.369 3.65-5.149 5.28-7.92 5.12,3.79 17.44,3.521 22.32,0 .51,3.25.2,5.46 1.2,7.92 .46,1.132 2.29,2.501 2.4,3.601zm-7.2,0c.62,2.05 4.18-.851 3.12-1.2-.69.75-2.04.84-3.12,1.2z" fill="#e5e1d8"/>
 <path d="m186.021,344.407c.14,4.24 1.03,9.13.48,12.24-.37,2.08-1.63,4.16-2.16,6.479-.51,2.25-1.52,4.44-1.92,6.48-1.21,6.14-.85,12.899-1.44,19.68-.61,7.01-.87,14.13-.48,20.16-2.11,3.92-5.1,6.95-8.28,9.79l-.45-.5c1.56-1.45.58-4.13.57-6.17-.03-6.83.74-14.33.96-21.12 .28-8.729 1.44-18.24 3.6-27.12 3-12.33 3.2-24.399 8.16-33.84 .45,4.341.8,9.141.96,13.921z" fill="#bebcc0"/>
 <path d="m186.021,295.207c.7,6.48-.09,17.42-.48,24.24-.16,2.86.37,5.97-.24,8.4-.2.8-.72,1.55-1.34,2.29-1.03,1.239-2.35,2.47-2.98,3.949-.5,1.16-1.09,2.86-1.44,4.32-1.52,6.32-2.39,14.22-4.08,22.32-1.58,7.6-2.9,15.58-3.6,23.04-.98,10.41-.49,20.729-1.2,29.76-.15,1.92-1.37,3.75.24,5.76 .35-.149.64-.34.87-.55l.45.5c-1.54,1.4-3.13,2.75-4.68,4.13-1.8-2.12-6.62-2.66-7.44-5.28-.51-1.6.83-4.06.96-6 .45-6.659.16-12.729.96-19.439 .61-5.09.33-10.22.72-15.601 2.15-29.989 3.82-63.96 19.92-79.199 1.01-.95 2.44-1.55 3.36-2.64z" fill="#bebcc0"/>
 <path d="m185.06 426.49c-5.77 1.29-9.98-2.34-15.6-1.2 2.11-5.49 11.93-1.03 15.6 1.2z" fill="#8e94b7"/>
 <path d="m179.061,461.527c1.69.5 3.49,2.36 4.8,3.6-9.23,3.62-19.34,5.471-29.28,6-2.86.15-5.32-.58-7.92-1.439-.5-6.78-1.09-13.47-7.68-14.16-.04-.28.05-.43.24-.48s.24-.239.48-.239c5.5,3.069 11.2,5.859 19.68,6.72 1.66.17 3.36.71 4.8.72 5.03.019 10.2-2.111 14.88-.722z" fill="#343780"/>
 <path d="m177.861,41.047c.28-.04.43.05.48.24-.05,16.37-.56,36.83-8.88,48.72-3.81,5.44-8.42,12.08-14.88,14.16-1.01,1.01-2.39,1.32-3.84,1.44-6.81.56-9.54-5.05-11.28-10.8 .56-1.76 2.63-2.01 3.12-3.84-2.74-.86-5.16,2.65-6.96,4.32-1.94,7.26-6.61,11.79-14.16,13.44-1.78-1.01-3.28-3.06-2.88-5.52-1.02-.22-1.21.39-1.44.96-1.77-1.63-4.35,1.35-6.24-.48 .15-1.37 1.62-1.42 1.68-2.88-1.58-.81-1.57,1.46-2.88,1.68-2.36.39-5.13-1.14-6.96-2.16 .87-2.02 2.86-4.62 2.16-6.72-1.11.49-1.57,1.63-1.92,2.88-.63.65-1.63.93-1.68,2.16-2.7,1.25-3.95,3.65-7.44,3.12-2.43-5.33-3.77-11.75-6.96-16.32 2.4-.32 4.8-.64 6.48-1.68 1.79.74 3.1,1.95 5.76,1.2 .89-.79 1.5-1.86 1.92-3.12 1.41.13 2.65.32 3.36-.72-1.47-.53-3.4-.6-5.04-.96 .78-1.12 1.61-2.27 2.64-3.6 2.67-3.44 6.84-7.17 12.72-4.32 1.34.65 2.83,3.26 4.32,3.36 5.76.37 1.28-10.02 4.8-12.72 1.97-.29 2.63,1.18 4.08,1.2 3.53.04 3.55-3.32 4.08-6.96 3.53-1.89 7.99.34 9.36,2.88 .24,5.58.92,10.83-3.6,12-1.24-.12-1.97-.75-3.12-.96-.7,2.12 2.52,2.75 3.6,2.64 4.13-.44 6.07-5.94 5.04-10.8 1.32.54 1.9,3.16 3.6,3.6 3.68.95 8.28-5.15 10.56-7.2 3.89-3.51 7.97-3.82 8.88-9.84 .28-1.84.05-3.17-.24-4.08 4.26-1.1 8.08-2.639 11.76-4.32zm-10.08,34.8c1.73.26 4.17-2.82 6-.48-.35-3.25-5.6-1.72-6,.48zm-5.04,18.96c.46-.1.43-.69 1.2-.48-2.36-5.34-12.62-7.64-17.52-4.32 5.87-.45 13.44.75 16.32,4.8zm-25.44-28.32c4.78-1.53.63-7.14-2.16-8.16-.02.38-.61.19-.48.72 1.85,1.92 5.34,4.4 2.64,7.44zm-34.56,25.92c-1.27-.4-3.53.1-3.6,1.68 1.57-.19 2.73-.79 3.6-1.68z" fill="#a1845a"/>
 <path d="m163.701,45.127c2.18,5.16-2.53,9.42-6.96,11.28-2.52,2.92-4.78,6.1-9.12,7.2-4.29-4.03-6.72-11.93-16.08-9.36-1.81,1.45-2.14,4.05-2.64,6.24-.95-.68-2,.07-3.12,0-.71-.05-.98-.65-1.92-.48-4.96.89-3.15,7.55-4.08,12.48-2.19-.86-4.09-3.27-7.2-3.84-3.39-.63-6.56.55-9.36,2.16-1.11,2.09-2.97,3.43-3.84,5.76-3.92,3.29-7.16,5.75-12,6.24-8.86.9-16.06-11.19-23.76-14.16-3.04-1.17-6.67-1.45-9.84-.96-2.02-3.19-1.18-6.86-2.88-10.56-1.19-2.6-3.88-4.05-4.08-6.96-.37-5.37 4.25-6.21 5.76-10.8 1.01-.27 1.56-1 2.4-1.44 .39-4.86 4.37-7.62 6.48-11.04 1.83-2.96 2.82-6.37 6-8.16 3.16.52 4.47-.81 6.24-1.68 .77-1.48.55-3.93 1.44-5.28 .68-.81 1.38-1.28 2.16-1.92 .66-.54 1.27-1.43 2.16-1.92 2.06-1.13 4.47-.45 6-1.44 1.56-1.01 2.11-3.98 4.32-4.08 .8-.04 2,1.24 3.12,1.44 1.49.27 3.24-.38 5.04-.48 5.27-.29 13.65.87 15.6,5.52 16.55-3.09 20.58,11.65 30.48,17.52 3.55,3.01 6.13,6.99 9.12,10.56 3.11,3.06 8.81,4.02 10.56,8.16z" fill="#2d2d2e"/>
 <path d="m149.781,177.367c3.8,3 1.84,10.19.96,15.12-.45,2.54-.7,5.4-1.44,7.44-1.72,4.75-6.47,8.02-6.24,15.36 0,.06 0,.11-.01.15-.12.71-.99.66-1.19,1.29 1.14,4.88-2.78,8.13-4.32,11.76-.83,1.96-1.41,4.18-2.4,6.24-1.38,2.89-1.81,4.69-2.88,8.16-.76,2.479-4.08,5.949-6.48,6.96-3.54,1.489-9.07.12-13.44.239-1.79.051-3.59.591-5.28.721-3.95.3-8.34-.48-11.21,1.68l-1.01-.54c.69-.71 1.41-1.43 2.14-2.1 3.49-3.2 5.97-5 6.48-10.08 .79-7.94 1.03-17.74-2.16-23.521-1.83-1.05-3.41-2.35-5.52-3.12 1.75-1.31 5.31.7 7.44.24 4.43-.96 4.58-10.99 6-15.12 1.23,1.49 1.77,3.67 3.6,4.56 .45-2.05-.99-4.29-1.92-5.76-.04-3.43-1.53-6.83-1.44-10.08 .2-6.89 3.44-12.69 3.12-19.68-.26-5.54-2.65-11.23-1.92-17.28 .42-3.49 2.07-6.33 3.6-9.6 4.11-8.8 6.76-19.37 9.12-29.76 3.35,2.67 3.67,8.16 5.04,12 1.96,5.5 3.97,10.89 6.24,15.84 1.21,2.65 2.25,5.03 3.84,7.44 2.57,3.88 5.29,8.31 6.48,13.92-1.46.7-4.25.07-4.8,1.68 .88,1.58 4.27-.23 6.48.72 .31,1.51 1.49,2.83.48,4.32 .98,3.331 3.46,7.211 2.64,10.801zm-7.68,8.88c.88-4.85 1.26-8.69-.24-12.72-.31-.01-.33-.31-.72-.24-1.04,2.09-.06,4.29 0,6.48 .16,6.06-2.28,10.44-3.6,14.88-.67,2.25-1.26,4.68-2.16,6.48-2.27,4.53-6.79,6.8-7.44,12 1.25-.19 1.21-1.67 1.68-2.64 7-4.65 10.77-14.84 12.48-24.24zm-7.44-23.28c1.43-.38 3.29-.02 3.6-1.44-2.62-.84-6.99-.21-8.64,1.92 .73,2.07 3.28-.02 5.04-.48z" fill="#a1845a"/>
 <path d="m146.631,472.607-.59,2.45c-1.55-.32-3.11-.29-4.42-.811-1.69-.68-6.35-3.2-7.68-6-1.01-2.13-1.69-7.56.24-9.359 2.79-2.61 7.93.35 9.36,2.64 .54,3.25-.4,8.37 1.92,10.32 .34.291.74.541 1.17.76z" fill="#7a7b7e"/>
 <path d="m106.821,190.327c.71.98 1.34,2.84 1.2,4.32-.09.94-.87,1.7-1.2,2.64-1.51,4.25-.49,10.87-4.08,13.2-2.93-.24-5.66-.44-7.68.72-.74.32.45,1.07-.24,1.44-4.19-1.49-7.69-6.66-13.2-4.8-1.55.52-4.87,2.86-7.68,4.56-3.19,1.94-6.59,5.37-8.4,8.64 0-.71.31-1.44.74-2.21 1.36-2.41 3.9-5.09 1.42-8.11 1.12-2.68.38-5.4 1.68-7.44 2.45-3.84 8.5-5.09 13.92-5.76 7.27-.9 12.48-4.1 18.24-5.76 2.13-.03 3.41-.44 5.28-1.44z" fill="#a1845a"/>
 <path d="m95.301,252.968c2.64,1.1 7.23-.75 11.04,0-1.78,13.329-1.22,25.399-5.52,36.239-.82,2.061-1.28,4.29-2.16,5.521-1.16,1.609-3.67,2.029-4.32,4.319 .4,1 2.23.24 2.64-.239-3.28,13.38-6.35,29.729-5.57,45.449 .02.29.03.58.05.87-8,2.32-18.88,2.681-24.96-1.68-.07-6.37.54-11.43.96-18.72 .29-5.01.2-10.09 0-14.641-.29-6.649-2.4-12.909-2.88-20.64-.35-5.58-.1-11.19-.48-16.8-.54-7.99-.04-16.2 0-24.24 3.14,2.47 7.99,3.69 13.44,5.76 5.49,2.08 10.08,4.67 14.16.96 .92-.84 1.99-1.989 3.14-3.18l1.01.54c-.19.152-.37.311-.55.482zm-15.6,66.96c.77,3.68.66,8.27 3.12,7.92-2.16-2.641-1.44-8.62-2.88-11.28h-.72c-.68,1.349.17,1.889.48,3.36zm5.76-22.801c-4.45-7.01-4.66-19.479-6.96-27.84 .36-1.569.67-4.2.24-4.8-1.87,4.61-1.32,9.69-.72,15.12 .7,6.3 2.82,15.42 7.44,17.52zm-11.52,10.08c.47-9.56.53-23.92 0-34.8-.05-.189-.2-.28-.48-.24-.06.34-.4.4-.48.721-.01,3.3-.63,7.279-.72,10.319-.24,8.561-1.01,15.57 1.68,24z" fill="#a1845a"/>
 <path d="m104.181,384.728c3.22,4.13 1.53,10.62-2.16,12.96-5.22,3.31-13.78,4.3-22.32,3.6-6.26-.51-12.43-1.91-18.48-1.2-4.26.5-7.02,3.21-10.32,4.32-4.18.93-9.59,1.89-15.12,1.92-5.81.03-10.86.271-16.08-1.68-3.04-1.141-5.84-2.68-9.12-4.08-2.91-1.24-5.83-2.18-6.96-4.561-.86-1.819-1.44-5.859.24-7.68 .9-.13 1.52,1.53 1.92,2.641 .47,1.289.56,2.89.96,4.079 .65.71 1.17,1.551 1.68,2.4 1.39.58 2.93,1.29 4.56,1.68 1.4.33 3.14,1 4.56,1.2 1.72.24 3.81-.479 5.76-.479 2.15,0 4.2.5 6.24.479 6.81-.08 14.21-2.8 21.36-4.8 3.41-.96 7.2-1.3 10.8-2.16 3.62-.86 7.1-1.979 10.32-2.16 7.9-.45 14.95-.42 20.88-1.2 3.05-.399 5.16.07 6.96-.72 1.85-.809 3.81-2.75 4.32-4.559z" fill="#7a7b7e"/>
 <path d="m102.261,378.247c.09,1.601.24,3.12.96,4.08-1.41,7.141-11.73,5.12-20.4,6.24-4.02.52-9.67.27-13.44.479 3.25-3.1 7.81-6.239 12.24-8.399 2.51-1.22 6.18-2.54 9.12-2.641 3.54-.129 7.32,1.432 11.52.241z" fill="#343780"/>
 <path d="m101.781,225.367c.19,2.34-.2,5.39-.24,8.16-.06,3.8.57,6.89-1.2,9.84-.59.98-2.15,1.97-3.12,2.88-2.97,2.78-6.14,5.65-9.36,8.16-7.23-1.79-15.41-4.33-21.6-7.92-1.04-3.44-.54-6.92-.72-10.56-.17-3.4-1.36-7.35-.72-10.32 .14-.67 1.25-1.7 2.16-2.88 1.55-1.99 3-4.34 4.8-6 3.59-3.31 8.87-5.62 12-6.96 3.64.34 5.71,2.65 9.12,4.56 2.72,1.53 6.62,2.67 7.68,4.8 .62,1.25 1.06,4.47 1.2,6.24zm-6.24-5.52c-.31-.01-.33-.31-.72-.24-2.66,1-4.73,2.49-6.48,4.56-1.23,1.46-3.05,3.63-2.4,5.52 2.16.44 2.46-1.77 3.36-2.88 1.91-2.36 5.42-3.599 6.24-6.96zm-2.4-1.44c-.53-1.83-2.79-2.6-4.56-3.6-1.8-1.02-3.87-2.65-6-2.64-.2.52-.62.82-.48,1.68 .9,1.05 2.38,1.28 3.84,2.16 2.21,1.32 4.41,4.28 7.2,2.4zm-7.44,31.92c1.47-1.77-.61-4.08-1.2-6.24-.68-2.489-.64-5.18-1.2-7.2-.31-.01-.33-.31-.72-.24-.1.3-.31.49-.72.48 .68,3.65.55,8.379 1.92,11.52 .29.661.8,1.9 1.92,1.68zm-12.24-22.08c3.25,1.3 7.18,3.34 9.12,1.68-3.03-3.69-9.52-3.92-13.92-6.24-.13.35-.37.59-.72.72-.15,2.281 3.27,2.94 5.52,3.84z" fill="#2d2d2e"/>
 <path d="m99.621,361.207c1.1,4.271 3.42,10.49 1.44,14.88-3.97,1.23-8.26-.76-11.52-.479-1.83.16-4.02,1.47-6,2.16-6.6,2.29-14.09,6.27-17.28,12-3.59,1.25-8.92,1.939-13.68,2.88-4.11.82-7.82,3.1-10.8-.72-3.97-.46-8.03-3-12-4.08-5.38-1.46-10.91.51-15.6-1.2 .36-1.26 2.64-1.08 4.08-1.68 1.59-.671 2.37-1.79 3.36-2.641 3.15-.13 5.35-1.21 7.2-2.64 1.27,1.49 2.83,1.41 3.6,3.12h1.2c.49-.07.23-.891.72-.96-1.51-1.9-2.75-5.4 0-6.721 1.82.9 2.46,2.98 4.56,3.601 .7-2.95-.8-5.181-.96-6.96 .74-1.53 2.3-3.42 3.6-3.601-.1.5.16.641.24.96-.06,1.16-1.28-.34-1.44.721 .69,2.75 3.2,3.68 4.8,5.52 1.46-3.35-2.94-4.439-2.4-9.12 1.05-.55 2.06-1.14 2.88-1.92 2.08,2.96 4.17,5.91 6.24,8.88 3.29-3.399-4.29-6.7-3.6-10.8 .2-1.21 2.86-2.49 4.08-4.08 1.36-1.76 2.09-3.04 3.6-5.04 1.48-1.95 2.62-2.939 5.04-2.88 3.59,2.16.98,7.13 1.44,10.32 .2,1.42 1.72,3.91 2.64,5.279 .93,1.391 2.41,2.33 3.6,3.36 4.28.43 6.92-.68 10.08.24 3.29-1.63 7.65.22 12-.72 4.34-.939 5.75-5.379 8.88-7.679zm-44.64,23.28c-1.11-2.25-1.91-4.81-3.36-6.72-.53,2.041 1.63,5.36 3.36,6.72zm-10.56-3.12c.09,2.99 2.31,5.82 4.8,7.2-1.74-2.259-2.95-5.049-4.8-7.2z" fill="#8e94b7"/>
 <path d="m95.061,357.127c.72.811 1.1,3.21 1.44,3.601-1.92,5.92-10.37,6.67-16.32,6 1.7-2.59 2.14-6.17 4.8-7.92 2.25-1.48 6.69-.94 9.84-.96 .13-.191.25-.391.24-.721z" fill="#343780"/>
 <path d="m92.181,346.567c2.15,1.63.7,5.689.96,8.88-3.64.46-7.06.1-9.84,1.68-2,2.5-4.32,5.62-4.32,9.36-4.14.85-5.26.6-9.6.72-2.13-1.47-2.96-4.239-4.56-6.239 .13-3.49 1.69-10.29-2.16-11.521 .62-1.54 2.06-2.26 2.64-3.84 6.13,4.9 20.13,5.621 26.88.96zm-23.52,9.6c1.15-.21 3.2.48 3.6-.479-1.12-.15-2.65-.931-3.6-.48v.959z" fill="#e5e1d8"/>
 <path d="m34.821,206.887c.73-.17.87.25 1.44.24-1.23,1.97-2.92,3.48-3.6,6-1.42-2.439 1.63-4.2 2.16-6.24z" fill="#b1b5b9"/>
 <path d="m27.141,390.247c4.96.63 9.25,3.98 14.88,4.8-3.56,1.61-8.61,3.171-13.68,3.12-7.79-.08-15.54.19-19.68-3.84 0-3.04-1.11-4.97-2.4-6.72 1.82-.23 4.48-1.57 4.8.96 1.84-.3 3.02.84 4.56,1.2 3.95.93 7.76.01 11.52.48z" fill="#343780"/>
 <path d="m62.901,229.447c-.49-2.48.94-4.09.24-5.28-.97,1.03-.93,3.07-1.68,4.32 .38.42.9.701 1.44.96zm-34.56,168.72c5.07.051 10.12-1.51 13.68-3.12-5.63-.819-9.92-4.17-14.88-4.8-3.76-.47-7.57.45-11.52-.479-1.54-.36-2.72-1.5-4.56-1.2-.32-2.53-2.98-1.19-4.8-.96 1.29,1.75 2.4,3.68 2.4,6.72 4.14,4.029 11.89,3.759 19.68,3.839zm22.56-2.64c-7.15,2-14.55,4.72-21.36,4.8-2.04.021-4.09-.479-6.24-.479-1.95,0-4.04.72-5.76.479-1.42-.2-3.16-.87-4.56-1.2-1.63-.39-3.17-1.1-4.56-1.68-.51-.85-1.03-1.69-1.68-2.4-.4-1.189-.49-2.79-.96-4.079-.4-1.11-1.02-2.771-1.92-2.641-1.68,1.82-1.1,5.86-.24,7.68 1.13,2.381 4.05,3.32 6.96,4.561 3.28,1.4 6.08,2.939 9.12,4.08 5.22,1.95 10.27,1.71 16.08,1.68 5.53-.03 10.94-.99 15.12-1.92 3.3-1.11 6.06-3.82 10.32-4.32 6.05-.71 12.22.69 18.48,1.2 8.54.7 17.1-.29 22.32-3.6 3.69-2.34 5.38-8.83 2.16-12.96-.51,1.81-2.47,3.75-4.32,4.56-1.8.79-3.91.32-6.96.72-5.93.78-12.98.75-20.88,1.2-3.22.181-6.7,1.3-10.32,2.16-3.6.86-7.39,1.199-10.8,2.159zm42.24-40.08c-.26-3.19 1.19-7.25-.96-8.88-6.75,4.66-20.75,3.939-26.88-.96-.58,1.58-2.02,2.3-2.64,3.84 3.85,1.23 2.29,8.03 2.16,11.521 1.6,2 2.43,4.77 4.56,6.239 4.34-.12 5.46.13 9.6-.72 0-3.74 2.32-6.86 4.32-9.36 2.78-1.58 6.2-1.22 9.84-1.68zm-56.88-148.32c-.57.01-.71-.41-1.44-.24-.53,2.04-3.58,3.8-2.16,6.24 .68-2.52 2.37-4.03 3.6-6zm-28.8-16.56c-1.43,1.47-2.44,2.8-3.14,4.31-.88,1.89-1.28,4.08-1.42,7.21-.21,4.52-.05,9.13-.48,13.68 6.15,5.28 16.05,13.08 26.64,8.64-.66-3.92 2.06-6.36 3.12-9.84-1.88.04-2.21-2.73-1.92-4.32 .14-.78 1.81-3.37 2.64-4.32 1.46-1.67 2.8-1.36 4.56-.48 2.26-1.83 2.3-6.6.72-9.84-.2-.4-2.05-2.42-3.12-3.36-.55-.48-1.35-1.01-2.3-1.55-1.57-.9-3.54-1.85-5.38-2.77-3.39-1.69-5.79-3.63-7.68-4.32-1.78-.65-3.94,1.36-5.04.96-2.66,1.93-4.65,3.38-7.2,6zm40.08,13.68c.55-2.24.51-3.45-.24-5.28-1.85-.01-1.98,1.7-2.16,3.36 1.1.24 1.52,2.23 2.4,1.92zm37.44,154.561c-2.66,1.75-3.1,5.33-4.8,7.92 5.95.67 14.4-.08 16.32-6-.34-.391-.72-2.79-1.44-3.601 .01.33-.11.53-.24.721-3.15.019-7.59-.521-9.84.96zm-19.44-122.881c.18,3.64-.32,7.12.72,10.56 6.19,3.59 14.37,6.13 21.6,7.92 3.22-2.51 6.39-5.38 9.36-8.16 .97-.91 2.53-1.899 3.12-2.88 1.77-2.95 1.14-6.04 1.2-9.84 .04-2.77.43-5.82.24-8.16-.14-1.77-.58-4.99-1.2-6.24-1.06-2.13-4.96-3.27-7.68-4.8-3.41-1.91-5.48-4.22-9.12-4.56-3.13,1.34-8.41,3.65-12,6.96-1.8,1.66-3.25,4.01-4.8,6-.91,1.18-2.02,2.21-2.16,2.88-.64,2.97.55,6.92.72,10.32zm-20.4-30.719c-3.04-3.57-5.49,1.02-6.96,3.12-2.96,4.21-6.57,9.31-7.2,15.12 .98.86 2.2,1.98 3.74,2.28 1.68,1.68 3.34,1.68 6.5,2.84 3.17,1.17 2.67.75 5.6,2.32-2.85.18-4.8-.97-7.44-1.44-2.74-.49-4.63-3.05-6.96-2.64 1.26,2.98 4.04,4.22 6.24,6 2.6,2.1 4.47,5.78 8.64,6 1.89,2.331 7.38.96 11.28,1.2 2.03.131 3.34,1.461 4.56.24 .3-3.42 1.08-9.37-2.88-9.84-.54,1.09-.88,2.45-1.92,3.36 0,0 .33-6.09 1.68-7.2-.48-2.94 2.33-4.45 3.6-6.72 .35-.63.68-1.24.97-1.84l1.69.83c-.43.77-.74,1.5-.74,2.21 1.81-3.27 5.21-6.7 8.4-8.64 2.81-1.7 6.13-4.04 7.68-4.56 5.51-1.86 9.01,3.31 13.2,4.8l.96.48c2.11.77 3.69,2.07 5.52,3.12 3.19,5.78 2.95,15.58 2.16,23.521-.51,5.08-2.99,6.88-6.48,10.08-.73.67-1.45,1.39-2.14,2.1-1.15,1.19-2.22,2.34-3.14,3.18-4.08,3.71-8.67,1.12-14.16-.96-5.45-2.069-10.3-3.29-13.44-5.76-.04,8.04-.54,16.25 0,24.24 .38,5.609.13,11.22.48,16.8 .48,7.73 2.59,13.99 2.88,20.64 .2,4.551.29,9.631 0,14.641-.42,7.29-1.03,12.35-.96,18.72 6.08,4.36 16.96,4 24.96,1.68-.02-.29-.03-.58-.05-.87l1.73-.09c1.42,1.931 2.75,2.69 2.88,5.28 .07,1.34-.75,2.65-.48,4.08 .39,2.09 3.09,2.58 2.4,5.04 1.53.01 1.54-.78 2.88,0 1.92,1.12 2.5,6.8 2.88,9.36 .47,3.13.26,7.1.72,10.56 .3,2.29 1.51,3.28 2.16,4.8 1.38,3.2 2.65,8.84.48,12.96-1.08,2.05-4.68,4.62-7.68,5.76-3.05,1.16-7.16,2.421-10.08,2.641-1.86.14-4.15-.42-6.24-.48-7.06-.22-15.61-2.66-23.28-.72-2.96.75-5.96,3.271-9.12,4.32-5.27,1.75-12.25,1.229-18.96,1.439-8.4.271-13.4-1.63-19.68-4.8-3.98-2.01-8.51-3.39-10.08-5.52-1.65-2.23-2.7-9.11-.96-11.761 1.9-2.88 12.7-2.909 16.08-4.319 1.64-.69 2.38-2.25 4.08-2.88 1.08-.4 2.4-.2 3.36-.48 5.69-1.65 6.65-6.53 11.04-8.64 2.02-2.38 4.05-4.75 6.24-6.96 4.96-2.221 8.22-6.801 11.76-11.28 1.15-1.45 2.37-3.5 3.6-4.08 .97-.46 2.1-.12 2.88-.48 1.68-.77 1.81-2.609 3.6-3.6 .98-14.29 2.77-32.32 0-46.08-1.28-6.33-1.03-12.24-1.44-18.479-.83-12.58-.99-23.851.24-37.2-3.96.37-6.38.5-10.56-.24-2.67-.47-5.14-.46-6.96-1.2-4.74-1.92-6.17-7.91-11.04-9.12-.94-2.1-3.02-3.06-3.6-5.52-7.88,5.21-15.6.62-21.84-3.12-3.31-1.98-6.54-3.96-8.4-6.48-.14-3.63.46-7.42.72-11.28 .25-3.64-.1-7.8.96-10.8 .49-1.38 2.18-4.32 3.12-5.52 .95-1.21 3-2.74 4.56-4.08 2.7-2.32 5.16-4.55 9.36-4.56 3.22-.01 5.18,2.51 7.68,3.84 2.76,1.47 5.23,2.3 7.92,3.6 1.49,1.47 3.15,2.77 4.8,4.08 1.65,2.37 2.34,7.09 2.16,9.84 3.25-.89 2.3-6.21 6.24-5.76 2.12,1.13 2.58,3.89 2.16,6.96 2.6-.14 5.43,1.57 6.72,4.08 1.6-.02 2.37-.48 4.08,0 1.65.47 2.47,2.52 3.81,2.77l-.09,1.78c-.19-.01-.39-.01-.6.01-2.04,1.4-2.52,4.36-4.56,5.76-.04.76-.54,1.06-.48,1.92-1.98,1.38-2.09,4.63-4.32,5.76 .62-6.74 4.8-9.92 7.2-14.88-5.64-3.65-6.94,1.92-9.36,5.76-.59.93-1.8,1.57-2.4,2.4-1.55,2.15-1.83,5.78-4.32,5.52 .86-2.09.99-4.17 2.16-6 .5-.78 1.71-1.36 2.4-2.4 1.1-1.65 1.69-3.92 2.64-5.28 .63-.9 1.75-1.32 1.68-2.4-.14-2.15-4.27-2.96-6-1.92-3.66,2.21-6.04,10.68-9.6,12.96-.5-4.604 4.71-8.774 6.48-13.923zm45.6,172.799c-2.94.101-6.61,1.421-9.12,2.641-4.43,2.16-8.99,5.3-12.24,8.399 3.77-.21 9.42.04 13.44-.479 8.67-1.12 18.99.9 20.4-6.24-.72-.96-.87-2.479-.96-4.08-4.2,1.19-7.98-.371-11.52-.241zm0-9.119c-4.35.939-8.71-.91-12,.72-3.16-.92-5.8.189-10.08-.24-1.19-1.03-2.67-1.97-3.6-3.36-.92-1.369-2.44-3.859-2.64-5.279-.46-3.19 2.15-8.16-1.44-10.32-2.42-.06-3.56.93-5.04,2.88-1.51,2-2.24,3.28-3.6,5.04-1.22,1.59-3.88,2.87-4.08,4.08-.69,4.1 6.89,7.4 3.6,10.8-2.07-2.97-4.16-5.92-6.24-8.88-.82.78-1.83,1.37-2.88,1.92-.54,4.681 3.86,5.771 2.4,9.12-1.6-1.84-4.11-2.77-4.8-5.52 .16-1.061 1.38.439 1.44-.721-.08-.319-.34-.46-.24-.96-1.3.181-2.86,2.07-3.6,3.601 .16,1.779 1.66,4.01.96,6.96-2.1-.62-2.74-2.7-4.56-3.601-2.75,1.32-1.51,4.82 0,6.721-.49.069-.23.89-.72.96h-1.2c-.77-1.71-2.33-1.63-3.6-3.12-1.85,1.43-4.05,2.51-7.2,2.64-.99.851-1.77,1.97-3.36,2.641-1.44.6-3.72.42-4.08,1.68 4.69,1.71 10.22-.26 15.6,1.2 3.97,1.08 8.03,3.62 12,4.08 2.98,3.819 6.69,1.54 10.8.72 4.76-.94 10.09-1.63 13.68-2.88 3.19-5.73 10.68-9.71 17.28-12 1.98-.69 4.17-2 6-2.16 3.26-.28 7.55,1.71 11.52.479 1.98-4.39-.34-10.609-1.44-14.88-3.13,2.298-4.54,6.738-8.88,7.679z"/>
 <path d="m99.621,81.367c-1.06-.02-1.57.51-1.68,1.44 1.11.07 1.66-.42 1.68-1.44zm59.76,98.16c3.77-5 13.78,2.2 18.72-2.4-2.33-.71-4.83-1.25-7.68-1.44-4.83-6.36-11.39-11.48-21.12-12.24 2.09,3.59 2,9.36 4.08,12.96-.05,1.17-.05,2.29.48,2.88 2.41.12 3.82-.92 5.52.24zm-91.92-160.799c-3.18,1.79-4.17,5.2-6,8.16-2.11,3.42-6.09,6.18-6.48,11.04-.84.44-1.39,1.17-2.4,1.44-1.51,4.59-6.13,5.43-5.76,10.8 .2,2.91 2.89,4.36 4.08,6.96 1.7,3.7.86,7.37 2.88,10.56 3.17-.49 6.8-.21 9.84.96 7.7,2.97 14.9,15.06 23.76,14.16 4.84-.49 8.08-2.95 12-6.24 .87-2.33 2.73-3.67 3.84-5.76 2.8-1.61 5.97-2.79 9.36-2.16 3.11.57 5.01,2.98 7.2,3.84 .93-4.93-.88-11.59 4.08-12.48 .94-.17 1.21.43 1.92.48 1.12.07 2.17-.68 3.12,0 .5-2.19.83-4.79 2.64-6.24 9.36-2.57 11.79,5.33 16.08,9.36 4.34-1.1 6.6-4.28 9.12-7.2 4.43-1.86 9.14-6.12 6.96-11.28-1.75-4.14-7.45-5.1-10.56-8.16-2.99-3.57-5.57-7.55-9.12-10.56-9.9-5.87-13.93-20.61-30.48-17.52-1.95-4.65-10.33-5.81-15.6-5.52-1.8.1-3.55.75-5.04.48-1.12-.2-2.32-1.48-3.12-1.44-2.21.1-2.76,3.07-4.32,4.08-1.53.99-3.94.31-6,1.44-.89.49-1.5,1.38-2.16,1.92-.78.64-1.48,1.11-2.16,1.92-.89,1.35-.67,3.8-1.44,5.28-1.77.869-3.08,2.199-6.24,1.68zm157.92,77.279c-5.64-2.77-13.8-4-17.28-9.84-5.15-8.64-7.65-20.93-9.84-30.96-.73-3.33-1.84-6.52-2.4-9.36-.88-4.49 1.89-6.84 2.64-9.84-5.47,1.23-11.6,2.87-17.52,2.88-.22,11.25-.66,23.3-2.64,33.36-.87,4.42-1.91,9.06-3.36,12.72-3.13,7.93-9.51,13.2-14.16,18.96-7.05,5.35-17.77,6.11-21.6-2.64-.56-1.28-.48-2.8-1.44-4.08-2.74,5.18-5.29,10.55-11.28,12.48 3.29,7.84 5.72,16.03 8.64,24.24 2.66,7.48 8,13.52 10.8,20.4 .73,1.8 1.08,3.6 1.68,5.28 5.33,2.44 12.01,2.47 16.8,6.24 2.82,2.22 4.67,5.13 7.44,7.2 5.14-.11 8.8,2.34 11.52,4.56 5.64,4.61 10.08,8.95 16.8,12.48 8.2,4.31 16.93,5.4 28.08,6 1.43-3.24 3.65-5.95 5.52-8.88s4.34-5.31 6.24-8.16c2.66-3.99 4.13-8.33 6.48-12.72 1.17-2.19 2.7-4.15 3.36-6.24 .86-2.72.67-5.68 1.2-8.64 .92-5.16 3.67-9.64 4.8-15.12-5.19-1.11-8.04-4.38-11.28-7.68-2.2-2.25-3.75-4.69-5.28-7.44-3.08-5.55-7.11-10.77-9.36-16.08-1.38-3.25-2.33-6.47-4.56-9.12zm72,112.08c2.6-2.2 2.54-7.06 6.479-7.92-2.83-14.45-6.7-27.86-11.76-40.08-2.77,5.62-5.69,10.53-8.88,15.36-3.29,4.97-6.25,9.83-10.08,13.92-1.91,2.04-4.92,3.19-6,6 7.82,2.17 14.38,6.86 21.6,10.32 3.171,1.521 6.191,3.501 8.641,2.4zm-169.44-144c-1.45-.02-2.11-1.49-4.08-1.2-3.52,2.7.96,13.09-4.8,12.72-1.49-.1-2.98-2.71-4.32-3.36-5.88-2.85-10.05.88-12.72,4.32-1.03,1.33-1.86,2.48-2.64,3.6 1.64.36 3.57.43 5.04.96-.71,1.04-1.95.85-3.36.72-.42,1.26-1.03,2.33-1.92,3.12-2.66.75-3.97-.46-5.76-1.2-1.68,1.04-4.08,1.36-6.48,1.68 3.19,4.57 4.53,10.99 6.96,16.32 3.49.53 4.74-1.87 7.44-3.12 .05-1.23 1.05-1.51 1.68-2.16 .35-1.25.81-2.39 1.92-2.88 .7,2.1-1.29,4.7-2.16,6.72 1.83,1.02 4.6,2.55 6.96,2.16 1.31-.22 1.3-2.49 2.88-1.68-.06,1.46-1.53,1.51-1.68,2.88 1.89,1.83 4.47-1.15 6.24.48 .23-.57.42-1.18 1.44-.96-.4,2.46 1.1,4.51 2.88,5.52 7.55-1.65 12.22-6.18 14.16-13.44 1.8-1.67 4.22-5.18 6.96-4.32-.49,1.83-2.56,2.08-3.12,3.84 1.74,5.75 4.47,11.36 11.28,10.8 1.45-.12 2.83-.43 3.84-1.44 6.46-2.08 11.07-8.72 14.88-14.16 8.32-11.89 8.83-32.35 8.88-48.72-.05-.19-.2-.28-.48-.24-3.68,1.68-7.5,3.22-11.76,4.32 .29.91.52,2.24.24,4.08-.91,6.02-4.99,6.33-8.88,9.84-2.28,2.05-6.88,8.15-10.56,7.2-1.7-.44-2.28-3.06-3.6-3.6 1.03,4.86-.91,10.36-5.04,10.8-1.08.11-4.3-.52-3.6-2.64 1.15.21 1.88.84 3.12.96 4.52-1.17 3.84-6.42 3.6-12-1.37-2.54-5.83-4.77-9.36-2.88-.53,3.64-.55,7-4.08,6.96zm268.56,162.48c21.699-1.77 43.64-1.98 66.239-3.84 4.021-.33 7.94-1.86 12-2.16 11.381-.83 22.91-.66 33.36-2.4 1.66-.28 3.58.4 5.04-.72 11.49,2.56 26.17,8.82 38.16,12.72 2,.65 4.22,1.3 6.24,2.16 3.39,1.45 6.529,2.16 8.399,4.8 2.4,3.39 3.271,11.51.96,16.32-.51,1.06-2.35,3.64-3.84,2.64l.04-1.699c.23,0 .45.01.68.02 2.17-4.45 3.08-11.45.48-15.36-1.5-2.25-7.311-4.11-10.561-5.28-12.119-4.37-24.85-8.52-35.76-12.24-2.09.6-3.87-.76-5.76-.96-2.96-.31-5.51.8-8.88,1.2-3.561.42-7.28-.19-11.04,0-2.82.14-5.71.72-8.64.96-2.7.22-5.54-.01-8.16.24-4.88.46-9.54,2-14.16,2.4-1.97.17-4.03-.64-5.76.72-6.221-.52-12.511.16-18.721.48-6.489.34-13,.25-19.439.72-10.2.74-20.01,1.94-30,2.64-6.16.43-12,.64-18,1.44-5.66.75-11.75,1.82-17.521,1.68-13.33-.33-28.87.88-42,2.88-1.54,11.74-9.04,17.52-15.12,24.72-1.49.77-3,1.5-4.55,2.189l-.74-1.619c1.11-.49 2.16-1.07 3.13-1.771 1.78-1.28 3.56-3.05 5.041-4.8 3.25-3.83 6.93-8.01 8.88-12.96 2.199-5.58.85-11.55.479-17.52-.13-2.16.4-4.15.48-6.48 .189-5.8-1.16-10.2-4.32-14.16-2.11,2.71-2.51,6.36-5.76,7.44-2.97.99-5.41-.88-8.64-2.16-1.71,2.01-4.88,3.77-5.28,7.2-.12,1.05.38,2.48.48,3.84 .13,1.85-.28,3.98 0,5.28 .75,3.51 4.41,5.33 5.04,7.44-2.69-1.07-3.52-4-5.76-5.52-1.99,2.96-2.2,5.32-3.6,8.88-.56,1.41-1.55,2.79-1.92,4.08-.75,2.631-.72,5.381-1.92,7.681-.82,1.58-2.52,3.37-3.84,5.04-1.36,1.729-2.61,4-3.84,5.279-.57.601-1.57.86-2.16,1.44-.97.95-1.73,2.24-2.64,3.36-1.81,2.25-3.92,4.13-5.76,6.239-.75.19-1.65.62-2.28,1.131l-1.08-1.131c2.66-1.67 4.51-3.779 6.48-6 1.44-1.619 2.47-3.68 3.84-5.04 .72-.71 1.95-.939 2.64-1.68 1.17-1.25 2.11-3.25 3.36-4.8 1.22-1.51 2.87-3.36 3.6-4.8 1.27-2.49 1.06-5.681 2.16-8.64 .5-1.35 1.44-2.47 1.92-3.84 .4-1.12.31-2.43.72-3.6 .51-1.49 2.25-2.91 2.64-4.08 1.18-3.49.03-6.99 0-10.32-.03-4.18 3.68-5.7 5.28-8.64-5.69-2.07-9.53-5.99-15.6-7.68-.16.27-.3.53-.41.8l-1.57-.35c.21-.5.46-.98.78-1.41-2.1-1.49-4.95-.5-6.96-.24-7.29,7.83-14.08,16.16-23.04,22.32 4.49,1.07 6.17,4 8.88,7.2 .38.45.77.92 1.15,1.39l-1.28,1.01c-3-4.09-6.29-7.75-11.87-8.16-.34.06-.41.4-.72.48-2.01,8.24-4,13.65-11.76,15.6-7.74,1.95-19.77.11-27.94,2.37l-.47-1.77c3.93-1.07 8.21-1.71 12.33-1.8 3.17-.07 7.15.1 11.04-.24 3.16-.27 8.34-1.37 10.08-2.88 1.78-1.55 3.21-5.88 4.08-8.88 .56-1.95.65-4.11 1.68-5.76 .97-1.56 2.43-2.79 3.36-3.84 1.09-1.23 2.08-2.5 3.6-3.36-.63,3.06-3.67,4.97-4.08,7.44 5.57-3.09 9.29-7.6 13.68-11.76 4.73-4.49 8.49-9.47 12.72-14.16 2.12-2.35 5.01-3.96 7.2-6.24 5.16-5.36 10.72-14.67 14.64-21.6 1.51-2.68 2.66-5.52 4.08-8.16 2.8-5.22 6.451-10.95 5.52-17.28-1.3-8.82-7.81-16.45-11.28-24.48-.71,1.05-.32,3.2-1.92,3.36 .66-18.89-4.57-33.95-16.32-41.76-.76-2.12-2.95-2.81-2.88-5.76-4.46-5.21-5.92-12.44-9.84-18-1.37-1.94-3.83-4.17-6-6-5-4.22-10.12-8.79-17.52-9.36-8.22-2.81-19.28-3.43-28.56-2.88-.67,2.45-3.39,4.51-3.6,7.44-.19,2.69 1.77,7.58 2.64,10.8 1.06,3.92 1.41,7.55 2.16,11.04 .78,3.62 2.02,6.9 3.36,10.32 1.19,3.05 2.4,7.23 4.08,9.6 4.38,6.18 16.02,7.06 23.04,9.84-1.99.39-2.51.83-4.8.72 2.16,2.64 2.57,6.42 4.08,9.6 .62,1.32 1.91,2.51 2.64,3.84 5.66,10.33 10.79,20.41 21.12,25.68 .95-2.25 1.66-4.74 3.84-5.76-1.64,5.42-2.62,10.91-4.56,16.32-.59,1.64-1.49,3.16-1.92,4.8-1,3.84-.76,7.83-2.16,11.28-2.65,6.55-6.52,11.82-8.64,18-3.96,3.44-6.98,8.38-10.32,13.2-3.49,5.04-4.33,11.43-6.72,17.52-1.64,1.29-2.68,3.18-4.56,4.32-.56.34-1.39.28-2.16.72-1.29.74-1.92,1.92-3.36,2.16-3.33.54-7.48-1-11.52-.96-4.59.05-8.64.85-12.48,1.2-2.92,2.2-4.01,6.23-4.8,10.56 1.65.25 3.51-1.62 4.08-.24-1.38,3.77-10.26,4.07-10.56,8.16-.12,1.69 1.53,2.18.72,3.6h-.96c-.04-.78-2.11-1.25-1.92-2.16-.2-5.56 3.75-6.97 7.68-8.4-.01-.79-1.19-.41-.96-1.44-.2-4.8 1.65-7.67 3.6-10.08 .71-.88 1.39-2.01 2.16-2.4 1.32-.67 4.65-.61 6.72-.72 5.89-.3 14.32-.04 18.24.48 6.37-3.01 10.28-7.48 11.28-15.84-5.88-.76-10.68-.78-15.6-1.68-7.49-1.38-13.89-5.22-18.96-8.64-.57-.38-1.38-1.15-2.16-.96 1.3,7.91 4.57,14.68 5.04,22.08-1.95-1.91-2.64-5.33-3.6-8.4-.96-3.04-2-6.37-2.64-9.36-.38-1.77-.29-3.49-.72-5.04-.35-1.26-2.17-1.96-1.92-3.36-2.43-1.41-3.91-3.77-6.48-5.04-2.57,1.21-4.09,2.59-6.96,2.64-3.25.05-6.92-2.22-10.08-1.68-1.21.21-2.06,1.71-3.36,1.92-1.74.28-3.77-.75-5.52-.48 .08,3.34.14,5.37-.48,8.16 5.02,5.56 11.09,11.46 11.76,19.92-3.41-6.59-7.52-12.48-12.24-17.76-.9,5.5-2.26,10.54-4.8,14.4 3.62,6.17 8.57,13.47 9.12,21.12-4.13-5.71-6.26-13.42-10.32-19.2-1.09,2.69-1.87,5.37-2.55,8.2l-1.54-.37c.01-.04.01-.09.01-.15-.23-7.34 4.52-10.61 6.24-15.36 .74-2.04.99-4.9 1.44-7.44 .88-4.93 2.84-12.12-.96-15.12 .82-3.59-1.66-7.47-2.64-10.8 1.01-1.49-.17-2.81-.48-4.32-2.21-.95-5.6.86-6.48-.72 .55-1.61 3.34-.98 4.8-1.68-1.19-5.61-3.91-10.04-6.48-13.92-1.59-2.41-2.63-4.79-3.84-7.44-2.27-4.95-4.28-10.34-6.24-15.84-1.37-3.84-1.69-9.33-5.04-12-2.36,10.39-5.01,20.96-9.12,29.76-1.53,3.27-3.18,6.11-3.6,9.6-.73,6.05 1.66,11.74 1.92,17.28 .32,6.99-2.92,12.79-3.12,19.68-.09,3.25 1.4,6.65 1.44,10.08 .93,1.47 2.37,3.71 1.92,5.76-1.83-.89-2.37-3.07-3.6-4.56-1.42,4.13-1.57,14.16-6,15.12-2.13.46-5.69-1.55-7.44-.24l-.96-.48c.69-.37-.5-1.12.24-1.44 2.02-1.16 4.75-.96 7.68-.72 3.59-2.33 2.57-8.95 4.08-13.2 .33-.94 1.11-1.7 1.2-2.64 .14-1.48-.49-3.34-1.2-4.32-1.87,1-3.15,1.41-5.28,1.44-5.76,1.66-10.97,4.86-18.24,5.76-5.42.67-11.47,1.92-13.92,5.76-1.3,2.04-.56,4.76-1.68,7.44 2.48,3.02-.06,5.7-1.42,8.11l-1.69-.83c.9-1.8 1.57-3.48 2.15-5.36-.81-.28-1.48-.69-2.52-.73l.09-1.78c.31.06.63.03.99-.13 1.37-.59.83-5.9 1.68-7.68 .68-1.42 3.4-3.89 5.04-4.8 3.93-2.17 7.86-1.71 12.96-2.64 7.11-1.3 13.82-6.84 22.08-6.72 .91-9.65 4.14-17.43 2.4-27.6-.51-3-1.61-6.72-1.2-10.8 .34-3.37 1.8-6.39 3.36-9.36 1.5-2.86 2.49-6.13 3.6-9.12 1.57-4.24 3.31-8.91 4.56-14.16 .41-1.73 1.17-4.35.96-5.28-.47-2.13-4.46-3.42-5.28-5.52-.97.47-2.47.41-3.6.72-3.3-2.59-7.37-2-10.8-4.8-2.95,2.82-8.84,4.33-10.8-.96-.39-1.06-.19-2.45-.48-3.6-1.2-4.81-4.51-9.15-6-12.24-10.62-3.24-14.17-14.14-26.16-15.12-1.51-.12-3.68.55-5.04-.24-2.76-1.61-1.9-7.83-3.84-11.52-.93-1.77-3.09-3.66-3.6-5.28-1.2-3.8.22-8.28 2.4-10.8 .52-.61 1.35-.84 1.92-1.44 .49-.51.57-1.86 1.2-2.64 1.06-1.33 2.43-1.53 2.88-2.4 .36-.69.28-2.15.72-3.12 .97-2.14 4.32-5.33 5.76-7.92 .56-1 .65-2.25 1.2-3.12 1.18-1.85 4.15-4.6 5.28-5.04 1.9-.74 4.07.04 5.28-1.2 .85-2.32.91-5.49 2.64-7.2 .56-.55 1.73-.79 2.88-1.44 .97-.55 1.91-1.43 2.64-1.68 1.33-.45 2.84-.09 4.08-.72 2.08-1.06 2.87-4.37 5.52-4.56 1.67-.12 3.08,1.28 4.56,1.44 3.02.32 6.56-.67 9.84-.24 2.71.35 6.22,1.18 8.16,2.4 1.17.73 2.06,2.49 3.36,2.88 1.31.39 3.37-.58 4.8-.48 4.07.3 10.6,4.17 13.2,6.72 1.57,1.54 2.98,3.21 4.56,4.8 3.18,3.19 5.6,6.73 9.84,8.88 3.13,3.72 5.36,7.86 9.36,10.56 1.94,1.31 4.97,2 6.24,4.32 1.48-.04 2.43.45 3.12,1.2 3.08-.65 6.34-1.87 9.36-3.36 1.59-.78 2.45-2.12 4.08-2.64 1.29-.41 2.77-.12 4.08-.24 4.37-.4 8.99-1.54 12.72-2.4 1.09-.25 2.14-.42 2.88-1.2 3,.81 6.32-.09 9.6,0 7.8.21 15.38,2.09 21.36,2.4 1.73,1.38 3.86,1.23 5.76,1.92 2.89,1.06 5.55,3.32 8.16,5.28 6.1,4.6 10.71,8.68 14.16,16.08 1.8,3.86 4.24,7.31 6,10.8 .81,1.6 1.1,3.55 2.16,5.04 2.09,2.93 5.69,4.4 7.68,6.96 2.46,3.17 4.29,7.11 5.76,10.56 .85,1.99 1.84,3.69 2.4,5.76 1.1,4.08 2.07,8.86 3.12,13.44 1.83,7.98 6.91,14.54 10.32,22.08 1.46,3.22 2.69,8.58 2.16,12.48-.3,2.17-1.55,5.3-2.4,7.44-.55,1.39-1.99,2.63-2.16,4.08-.14,1.24.85,2.9 1.68,5.04 3.32,8.58 5.36,16.1 7.44,25.2 .86,3.75 2.61,7.09 2.88,10.32 .101,1.26-.359,2.96-.239,3.84 .399,3.03 3.109,5.74 3.84,9.12 .87,4.02-.23,8.14-.24,12.24-.01,3.8 1.08,7.1.96,10.8 12.15-2.2 25.5-2.36 39.36-3.36 .64-.05 1.02-.14 1.439-.24 .91-.21 1.91-.51 3.12.24 3.83-.38 7.55.05 11.28-.48 3.74-.53 7.54-1.52 11.52-1.92 6.384-.639 13.034-.659 19.684-1.199z"/>
 <path d="m202.341,452.888c5.52-3.2 14.35-3.091 19.92-6.24-.52-3.17.85-6.43-1.68-8.16-10.05.829-16.69,5.07-18.24,14.4zm10.08-43.681c-.91,4.3 2.83,4.87 2.16,8.641-.69,3.87-6.95,7.63-3.36,11.279-.28.44-1.57-.13-1.2.96 2.01.2 3.19-1.97 4.08-3.6 1.85-3.41 2.19-7.2 5.28-8.64 2.12-3.93-1.36-8.879-6.96-8.64zm-29.52-2.88c3.83-3.66 4.21-9.66 5.28-17.76 1.13-8.521.88-17.78-1.68-23.76-2.57,12.791-2.69,28.2-3.6,41.52zm-1.44,6.72c5.5,2.841 11.87,1.921 15.6,6 1.86,2.04 2.32,5.381 4.56,6.721 1.73,1.029 4.04,1.109 6,1.2-.25-4.48 5.35-7.181 5.04-10.32-.11-1.101-1.94-2.47-2.4-3.601-1-2.46-.69-4.67-1.2-7.92-4.88,3.521-17.2,3.79-22.32,0-1.63,2.77-4.25,4.551-5.28,7.92zm3.6,13.44c-3.67-2.23-13.49-6.69-15.6-1.2 5.62-1.14 9.83,2.49 15.6,1.2zm-23.04-33.84c-.8,6.71-.51,12.78-.96,19.439-.13,1.94-1.47,4.4-.96,6 .82,2.62 5.64,3.16 7.44,5.28 1.55-1.38 3.14-2.729 4.68-4.13 3.18-2.84 6.17-5.87 8.28-9.79-.39-6.03-.13-13.15.48-20.16 .59-6.78.23-13.54 1.44-19.68 .4-2.04 1.41-4.23 1.92-6.48 .53-2.319 1.79-4.399 2.16-6.479 .55-3.11-.34-8-.48-12.24-.16-4.78-.51-9.58-.96-13.92l-1.1-.35c.62-.74 1.14-1.49 1.34-2.29 .61-2.431.08-5.54.24-8.4 .39-6.82 1.18-17.76.48-24.24-.92,1.09-2.35,1.69-3.36,2.641-16.1,15.239-17.77,49.21-19.92,79.199-.39,5.381-.11,10.511-.72,15.6zm-19.92,60.96c5.37,2.7 11.33,5.31 18.96,6 4.88.439 14.3-2.07 19.2,0 3.31,1.399 5.02,4.86 8.16,3.36 3.97-1.9 10.83-5.631 12.24-9.601 .6-1.68.35-3.33.72-4.56 2.56-8.59 9.12-11.09 18.96-12.721 1.23-6.17-.52-9.369-1.44-15.359-2.02,3.16-3.7,13.899-9.36,12.479-1.31-.33-1.9-1.779-2.16-3.6-6.26.28-10.39-3.49-12-8.64-1.97-2.591-8.73-2.83-12-4.32-.91-.41-1.69-1.91-2.64-1.92-2.05-.01-4.38,3.8-5.28,5.52 2.82-.01 6.39,2.3 9.6,3.84 3.04,1.45 8.13,3.78 6.48,6.96-4.72-3.489-14.83-3.449-20.64-4.8-.7.181-1.19.57-1.68.96-.1-.46-.09-1.029-.72-.96-.09.79-.7,1.061-.96,1.681 3.68,2 6.61,4.75 9.12,7.92-1.11.26.81,1.52-.48,1.92-3.13-2.07-4.69-5.71-8.88-6.721-1.93.87-2.7,2.9-3.36,5.04 2.16,1.95 7.23,3.46 6.24,6.96-2.86-1.14-6.88-7.199-9.6-2.64 1.44,1.14 4.07,2.64 5.28,4.561 .62.979 1.79,3.069.72,4.079-2.01-2.79-4.37-5.229-7.68-6.72-6.38,2.983-9.33,9.393-16.8,11.282zm4.56,16.081c2.6.859 5.06,1.59 7.92,1.439 9.94-.529 20.05-2.38 29.28-6-1.31-1.239-3.11-3.1-4.8-3.6-4.68-1.39-9.85.74-14.88.72-1.44-.01-3.14-.55-4.8-.72-8.48-.86-14.18-3.65-19.68-6.72-.24,0-.29.189-.48.239s-.28.2-.24.48c6.59.692 7.18,7.381 7.68,14.162zm-3.12-8.161c-1.43-2.29-6.57-5.25-9.36-2.64-1.93,1.8-1.25,7.229-.24,9.359 1.33,2.8 5.99,5.32 7.68,6 1.31.521 2.87.49 4.42.811 .21.04.41.09.62.149 2.17.61 4.17,1.65 6.24,1.92 3.36.44 6.59-.59 10.08-.72 2.45-.09 4.18.43 6.48.24 6.76-.57 14.43-4.17 19.2-6.72 3.79-2.021 6.85-5.801 10.01-7.86 .89-.58 1.79-1.03 2.71-1.26 2.02-.511 2.96-.07 5.52-.48-1.38,1.58-4.31,1.61-5.28,3.601 9.08-.681 16.08-3.44 21.12-8.16 .18-2.75 1.74-5.2.24-7.2-6.17,3.81-15.6,3.36-21.36,7.2-.89,2.37-2.9,3.939-5.26,5.35-1.84,1.09-3.88,2.09-5.78,3.29-3.25,2.061-7.29,4.2-11.28,5.04-.87.18-2.02-.02-2.88.24-1.62.479-2.79,1.71-4.32,2.16-1.72.5-3.69.75-5.76.96-5.21.54-14.95,2.199-19.71-.2-.43-.22-.83-.47-1.17-.76-2.32-1.95-1.38-7.07-1.92-10.32zm-44.88-166.799c.88-1.23 1.34-3.46 2.16-5.521 4.3-10.84 3.74-22.91 5.52-36.239-3.81-.75-8.4,1.1-11.04,0 .18-.171.36-.33.55-.48 2.87-2.16 7.26-1.38 11.21-1.68 1.69-.13 3.49-.67 5.28-.721 4.37-.119 9.9,1.25 13.44-.239 2.4-1.011 5.72-4.48 6.48-6.96 1.07-3.47 1.5-5.271 2.88-8.16 .99-2.06 1.57-4.28 2.4-6.24 1.54-3.63 5.46-6.88 4.32-11.76 .2-.63 1.07-.58 1.19-1.29l1.54.37c-.62,2.55-1.16,5.22-1.77,8.12-3.69,6.23-7.04,12.8-8.88,20.88 8.76,4.06 17.7,7.88 29.04,4.319 .27-.02.37.351.48,0-1.69-4.149-4.32-8.64-3.84-14.16 2.66,5.91 4.73,10.9 7.68,16.32 3.27,6.01 5.14,12.29 11.76,14.16-1.43-5.89.46-11.92 1.68-16.32-2.8-.64-3.9-2.029-3.84-4.319 .04-1.73 3.4-4.36 3.36-5.28h.96c5.31-3.08 10.75-8.35 19.2-6.72-2.81,1.27-5.65,2.51-9.12,3.12-3.5,3.86-10.64,4.08-12.24,9.84 .51.609 1.11,1.13 1.92,1.439 1.83-.529 2.44-2.149 3.84-3.12 2.95-2.05 6.88-3.75 11.19-4.919l.47,1.77c-.55.149-1.07.319-1.58.51-4.82,1.79-9.37,4.29-12.24,7.44-.27,3.22-1.51,6.72-1.68,10.319-.29,6.19 2.29,10.45 4.32,15.601 1.45,3.68 2.61,8.08 3.36,11.76 .13.65.19,1.49.24,2.16 .86,11.899-.99,25.689-1.2,38.64-.09,5.47.47,11.65.72,17.521 .26,6.26-.4,13.739.48,18.96 .82,4.84 2.64,9.229 2.64,13.92 0,8.88-1.68,16.87-3.6,24.96 5.38,3.729 18.06,2.35 22.32-.96 2.25-8.311 3.74-17.12 5.76-25.92 2.04-8.891 2.54-18.221 5.28-26.4 2.78-8.29 7.29-15.43 7.92-23.76 .26-3.391.02-5.851.24-8.16 .7-7.2-.23-12.71-2.16-18-2.31-6.33-10.62-15.61-3.6-21.12 1.17.4-.58,2.3.72,2.64 3.33-.38 6.83-2.51 10.32-3.119 3.07-.54 6.04-.32 8.88-1.2 2.73-.851 5.17-1.59 7.68-2.4 .69-2.72.62-5.22 1.44-7.92 .72-2.34 2.26-4.2 3.12-6.479 3.57-9.5-.8-20.46-5.04-26.4-.68-.96-1.36-1.93-2.05-2.88l1.28-1.01c4.82,5.99 9.14,13.4 9.17,23.09 1.08-1.811 1.22-3.63 2.4-5.521 .97-1.55 2.89-2.72 3.6-4.319 .28-.631.06-1.54.24-2.16 .68-2.32 1.94-3.9 2.16-6.24 .09-.92-.3-1.86-.24-2.88 .31-5.26 2.4-10.29.96-15.36-1.86-2.62-5.92-4.32-6.96-6.96 1.64.85 3.87,1.8 5.28,3.12 .71.67 1.38,2.51 2.16,1.92 .09-4.51-1.18-10.12.42-13.95l1.57.35c-.9,2.16-.16,4.32-.07,6.88 .21,6.35.06,12.56-.72,17.52-.59,3.8-.2,7.74-.72,11.28-.17,1.14-.94,2.5-1.44,3.84-.5,1.33-.7,3.08-1.2,4.08-.8,1.58-2.8,2.94-3.84,4.8-1.33,2.38-1.63,4.931-3.84,6-.51,5.11-3.84,8.561-4.8,13.92l1.08,1.131c-.51.409-.86.859-.84,1.27 1.75-1.979 4.59-.53 7.44-.96 1.74-.26 4.04-1.8 6.48-2.4 4.02-.989 7.13-2.159 9.84-3.119 4.03-1.431 7.93-2.25 11.27-3.75l.74,1.619c-6.26,2.86-13,5.181-19.93,6.931-1.27.319-2.8.489-4.08.96-1.38.51-2.46,1.62-3.84,1.92-1.24.26-4-.2-5.76.24-2.18.54-3.26,3.06-5.28,4.08-2.38,1.21-7.52,2.439-10.08,2.88-2.04.35-4.24.069-6.24.479-3.05.63-5.79,2.38-8.64,2.88 5.05,2.48 10.11,5.471 17.28,5.28 4.17-.11 8.53-1.72 12.96-2.4 10.71-1.64 23.94-2.739 33.36-3.6 2.24-.2 4.4-.84 6.479-.96 3.98-.23 8.001.02 12.001-.24 12.939-.84 26.29-1.359 39.359-2.88 3.391-.39 6.63-1.4 10.08-1.68 7.12-.58 13.99-1.021 20.641-1.681 3.359-.34 6.75-1.329 10.08-1.439 1.359-.04 2.67.27 4.079.24 11.801-.29 23.73-2.58 35.761-3.841 25.92-2.72 54.739-5.199 79.68-9.119 3.06-.48 6.07-.341 9.12-.721l2.07-.27 .239,1.76c-.939.13-1.87.271-2.79.43-7.369,1.271-16.77,2.811-25.199,3.841-17.221,2.1-36.49,3.14-55.44,5.76-8.33,1.149-16.57,1.55-25.68,2.88-1.4.2-2.82.39-4.28.57-6.31.76-13.16,1.239-19.96,1.35-7.3.12-16.44,1.98-24.72,2.64-5.83.471-11.65,1.49-17.521,1.92l-.27.021c-13.08.95-26.07,2.33-38.851,3.34-2.64.21-5.5.41-8.16.48-12.569.34-29.709,1.859-42.72,4.319-4.39.83-8.47,2.45-13.68,1.92-4.31-.43-11.47-2.659-14.64-4.8-.8-.54-1.64-1.229-1.92-2.64 .02,4.62 3.52,7.84 4.8,12 14.94-2.54 32.86-3.351 49.2-5.28 3.18-.38 6.46-.64 9.6-.96 4.34-.44 8.98-.24 12.24-1.68 9.819.5 19.71-2.601 30.239-1.92l.19,1.609c-1.9.23-3.811.42-5.71.55-8.771.601-17.4,1.551-25.2,3.12-25.21,1.37-47.17,3.761-69.36,6.48 3.32,12.63 3.35,27.41-.72,38.64-3.06,8.45-6.55,15.9-8.16,25.681-.52,3.18-.32,6.63-.96,10.079-.29,1.58-1.3,3-1.68,4.561-.55,2.24-.68,4.62-1.2,6.96-.47,2.11-1.41,4.12-1.92,6.24-.63,2.64-.46,5.479-.96,8.16-.54,2.92-2.98,5.72-2.16,8.88 3.69-.15 8.04,1 9.6,4.08 1.64,3.25-.71,8.29 0,12.72 .21,1.33 1.51,3.05 1.68,4.32 .43,3.22-.98,6.479-.48,8.88 .33,1.59 1.75,2.85 1.92,4.08 .25,1.779-.38,3.33-.24,4.56 .16,1.46 1.45,2.47 1.68,3.84 .6,3.55-.8,7.57-1.92,9.12-1.94,2.68-5.88,3.54-9.6,5.04-1.25.5-2.29,1.55-3.36,1.92-2.29.79-5.47,1.29-7.92,1.44-1.79.109-4.04-.69-5.52-.24-1.29.4-2.61,2.34-4.08,3.36-3.2,2.22-6.1,3.439-9.84,5.04-4.3,1.84-10.57,4.72-16.56,4.8-1.76.02-3.49-.41-5.28-.24-6.58.62-10.16.61-15.84-.96-2.27-.62-4.87-1-6.24-1.68-1.73-.86-6.46-4.45-7.68-6.48-1.95-3.25-2.47-9.77-.24-12.96 1.99-2.86 6.5-3.09 7.92-7.2 .82.271-.08.931.48,1.2 5.01-1.01 7.75-4.03 11.28-7.2 3.54-3.18 6.98-4.54 9.6-8.399 2.26-3.33 2.55-7.74 5.28-11.04-3.17-1.49-8.53-1.801-9.36-5.04-.42-1.63 1.63-7.08 1.68-9.84 .08-4.41.1-9.881.48-14.881 .24-3.199 1.09-6.279 1.2-9.6 .07-2.18-.14-4.3 0-6.479 .46-7.061.34-16.061 1.2-23.28 .17-1.44.86-2.91.96-4.32 .23-3.17-.25-6.27.24-9.36 1.18-7.449 3.2-15.689 5.28-22.8 3.38-11.569 9.25-21.66 18.24-27.359-.55-9.69-4.11-16.37-6.72-24-8.86-1.62-11.61-9.351-15.12-16.32-11.83,4.2-23.41.74-31.68-5.04-2.49,1.13-2.95,3.72-5.52,5.04-5.14,2.64-13.25-1-18.72.96-1.86,6.6-1,15.59-1.92,22.8-1.1,8.67-3.67,16.431-7.44,22.08-3.37,14.88-5.46,29.94-6.24,46.8l-1.73.09c-.78-15.72 2.29-32.069 5.57-45.449-.41.479-2.24,1.239-2.64.239 .653-2.297 3.163-2.717 4.323-4.326z"/>
 <path d="m592.341,312.487c.6,7.41-.641,14.44-.96,21.84-.59,13.46-1.94,28.141-3.36,41.76-.39,3.7-.96,7.521-1.68,11.04-.681,3.29-1.28,6.78-2.88,9.601-.15-.26-.271-.521-.37-.78-.67-1.729-.351-3.51-.11-5.22 .97-6.74 2.561-13.5 3.12-20.88 .89-11.83 2.49-24.07 2.88-36.96 .34-11.11 1.96-21.091-.24-32.641-.5-2.64-1.1-5.279-1.68-7.92-.89-4.05-2.07-7.359-3.36-10.56-.38-.95-.38-2.04-.72-2.88-2.05-5.091-8.34-12.49-12.96-15.601-1.55-1.04-3.479-1.76-5.52-2.88-1.551-.85-4.12-2.65-5.521-2.88-1.92-.32-5.46.71-8.399,1.2-10.36,1.74-20.94,1.529-31.051,2.93l-.239-1.76c4.83-.67 9.55-1.521 14.25-2.13 5.47-.71 10.729-.66 15.84-1.44 4.59-.7 9.02-1.979 13.72-1.939l-.04,1.699c1.811,1.971 4.271,2.641 6.48,3.841 5.67,3.079 10.729,9.449 14.159,15.359 5.161,8.902 7.541,23.621 8.641,37.201z"/>
 <path d="m582.801,397.107c.14.02.28.06.42.1-1.95,2.12-5.53,2.391-8.64,3.12-3.221.76-6.5,1.53-9.36,2.4-4.29-2.19-9.08-3.88-12-7.44 1.45-11.12 2.9-21.66 4.8-32.16 1.94-10.739 4.12-21.13 4.561-33.359 .399-11.29.46-24.431-2.881-33.601-3.439-9.47-8.649-15.93-15.84-21.84-2.64-.899-5.069-3.32-8.16-3.84-1.1-.18-2.579.11-3.84,0-18.859-1.6-40.34.97-59.279,3.36-.101.01-.19.02-.29.04-5.94.739-11.83,1.409-16.99,3.08-.23.699.38.329.45.31-.03.03-.091.07-.21.17-.12,12.65-2.521,24.17-3.12,37.92-.28,6.39-.351,11.9-1.2,17.521-.25,1.64-.97,3.319-1.2,5.04-.47,3.579.09,7.35-2.16,9.84-1.29-1.601-.189-3.221 0-4.8 .761-6.511 1.74-13.29 2.16-20.16 .14-2.221-.31-4.29-.24-6.48 .271-8.45 1.88-16.6 2.641-24.72 .47-4.99.26-9.96 1.2-14.88-1.921.029-4.271.26-5.28.479 .03,1.71-.96,3.4-1.2,5.28-.91,7.14-.53,16.98-.96,24.48-.84,14.85-2.98,28.199-4.32,41.76 1.011,2.189 3.011,3.39 4.8,4.8 5.511-1.44 9.851-5.1 16.561-4.56 2.67-18.73 4.21-40.511 5.52-60 .16-2.36.49-5.44.96-8.16 .381-2.21.48-5.7 2.641-6.48 1.37,1.22.02,3.41-.24,5.521-1.1,8.87-1.61,19.319-2.64,28.319-.62,5.48-.051,11.19-.96,16.561-.17,1-.771,1.859-.96,2.88-.971,5.12-.761,10.41-1.44,15.12-.39,2.71-1.7,5.189-.96,7.68-4.27.63-7.49,2.25-11.52,3.6-2.58.87-5.521,2.48-7.2,2.4-3.07-.15-4.641-3.91-7.2-5.28 2.06-8.79 1.83-18.33 3.12-28.08 .399-3.029 1.229-5.939 1.439-8.88 .95-13.029-.77-25.649 2.16-36.72-9.84-.14-23.26,1.2-32.16,2.4-11.71,1.58-23.29,1.64-34.56,3.84-2.85-1.11-5.46.08-8.4.479-6.319.87-13.239.21-20.399.721-6.761.489-13.601,1.75-20.45,2.569l-.19-1.609c4.341-1.271 9.08-1.95 14.07-2.4 10.98-.97 23.17-.79 34.89-3.12 9.54.42 18.7-1.12 27.761-2.229 2.029-.25 4.06-.471 6.08-.65 16.35-1.44 32.529-2.04 48.72-4.08 17.37-2.189 32.77-4.95 48.96-5.52 4.7-.17 8.6.27 12.96.239 1.52-.01 3.02-.54 4.56-.479 1.471.06 2.96.649 4.561.72 3.38.141 5.85.17 8.64,1.68 10.71,5.811 19.48,16.73 22.561,30.48 2.39,10.69 2.08,24.52 1.199,36.72-.3,4.141-1.149,7.84-1.92,11.761-2.149,10.949-3.699,21.079-5.279,33.6-.42,3.29-2.24,8.75-1.44,11.52 .94,3.28 6.38,3.46 8.4,6.24 5.513-1.232 12.053-4.793 18.293-3.223z"/>
 <path d="m574.582,310.567c.6,8.83.43,17.58-.48,27.12-.46,4.819-1.86,9.72-2.4,14.64-1.59,14.44-2,30.67-6.72,43.68-2.07-1.409-.59-4.38-.24-6 3.391-15.55 4.5-32.829 6.721-49.199 1.27-9.37 1.55-18.61 1.199-27.84-.46-12.19-2.649-25.04-8.399-33.601-2.08-3.1-6.29-6.479-9.601-9.12-2.76-2.21-9.979-5.21-9.84-8.399 .181-.221.44-.36.721-.48 3.63,1.74 7.84,4.32 11.04,6.96 3.25,2.68 6.89,5.55 9.119,8.641 6.159,8.518 8.079,21.768 8.88,33.598z"/>
 <path d="m552.021,240.007c-1.03,1.511-3.41.461-4.8.48-5.45.06-11.04,1.65-16.561,2.4-2.63.359-5.579.27-8.399.479-19,1.41-38.7,4-58.32,5.521-11.22.869-22.2,2.67-33.12,3.6-13.77,1.17-27.55,1.93-39.84,3.84-2.37.37-5.07-.03-6.96,1.68-3.64-1.34-8.24-.029-13.2.24-3.01.17-6.1.61-9.12.96-6.05.7-12.239.82-18.239,1.2-4.92.311-9.761,1.35-14.4,1.68-3.91.28-7.689-.13-11.28.24-2.67.271-5.12,1.2-7.68,1.44-2.61.25-5.18.25-7.68.72-2.28.43-4.62.91-6.24,0 1.729-1.89 4.72-1.53 7.2-1.92 2.569-.4 5.37-.43 7.92-.72 2.43-.271 4.609-1.341 7.2-1.681 4.029-.529 8.22-.359 12.239-.72 5.74-.51 10.48-.95 17.521-1.44 17.229-1.21 35.64-4.199 54.72-5.279 10.23-.58 20.59-2.23 30.96-2.88 9.771-.61 19.3-2.91 28.32-3.601 20.52-1.58 38.79-3.21 57.6-5.279 6.78-.74 14.25-.631 18.721-2.4 4.838-.1 10.499.04 13.438,1.44z"/>
 <path d="m290.661,146.167c.23.01.19.29.24.48-2.3,5.94-5.12,11.36-8.64,16.08-.33.31-.24,1.04-.24,1.68-3.75,5.46-6.53,11.87-11.76,15.84 7.01-11.15 12.92-23.4 20.4-34.08z"/>
 <path d="m286.34 253.21c2.14 1.3 5.01 1.87 6.24 4.08-2.37-0.13-4.72-2.3-6.24-4.08z"/>
 <path d="m243.621,265.688c-.73,1.189-2.4,1.03-3.6.96-5-.29-11.38-1.601-16.32-.48-2.14.49-1.78,2.65-3.12,4.32-.75.93-2.16,1.31-3.12,1.92-1.01.64-1.7,1.69-2.88,1.68 .54-3.39 6.21-3.699 6-8.64 6.41-3.18 16.94-.751 23.04.24z"/>
 <path d="m231.861,200.887c.45-1.73 2.74-2.82 4.08-2.88-1.21.98-1.97,3.59-4.08,2.88z"/>
 <path d="m224.421,312.968c.3,5.1.78,12.119-.48,17.279-.52,2.12-2.29,5.99-1.92,9.36-1.46-3.11-.09-6.561.24-9.84 .94-9.32.43-18.71-2.4-26.641-.28-.04-.2-.439-.24-.72h.48c2.54,2.121 4.07,6.282 4.32,10.562z"/>
 <path d="m213.861,409.928c.63-.07 1.03.09.96.72-.58-.101-.52.439-1.2.24-.1-.5.16-.641.24-.96z"/>
 <path d="m208.581,415.447c1.06.35-2.5,3.25-3.12,1.2 1.08-.36 2.43-.45 3.12-1.2z"/>
 <path d="m207.86 289.21c0.06 1.931-4.17 3.99-6.24 2.4 1.79-1.089 5.21-0.549 6.24-2.4z"/>
 <path d="m199.941,269.047c.56-.079.92.04 1.2.24-.51,3.01-3.09,3.95-5.28,5.28 .71-2.49 3.45-2.95 4.08-5.52z"/>
 <path d="m194.181,439.928c1.31,2.01 2.07,6.729.96,9.6 .32-3.22-1.12-7.33-1.68-9.6h.72z"/>
 <path d="m192.981,363.127c.28-.779.27.641.24.96-.28.78-.27-.64-.24-.96z"/>
 <path d="m187.941,448.087c.86,1.511 1.98,5.311.48,6.96 .17-2.079-.6-4.89-1.2-6.96h.72z"/>
 <path d="m182.18 183.85c1.44 4.83 3.68 8.33 3.6 14.16-1.91-4.12-3.5-9.48-4.08-14.16h0.48z"/>
 <path d="m183.961,330.138 1.1.35c-4.96,9.44-5.16,21.51-8.16,33.84-2.16,8.88-3.32,18.391-3.6,27.12-.22,6.79-.99,14.29-.96,21.12 .01,2.04.99,4.72-.57,6.17-.23.21-.52.4-.87.55-1.61-2.01-.39-3.84-.24-5.76 .71-9.03.22-19.35 1.2-29.76 .7-7.46 2.02-15.44 3.6-23.04 1.69-8.101 2.56-16 4.08-22.32 .35-1.46.94-3.16 1.44-4.32 .63-1.481 1.95-2.711 2.98-3.95z"/>
 <path d="m173.781,75.367c-1.83-2.34-4.27.74-6,.48 .4-2.2 5.65-3.73 6-.48z"/>
 <path d="m163.941,94.327c-.77-.21-.74.38-1.2.48-2.88-4.05-10.45-5.25-16.32-4.8 4.9-3.319 15.16-1.02 17.52,4.32z"/>
 <path d="m141.861,173.527c1.5,4.03 1.12,7.87.24,12.72-1.71,9.4-5.48,19.59-12.48,24.24-.47.97-.43,2.45-1.68,2.64 .65-5.2 5.17-7.47 7.44-12 .9-1.8 1.49-4.23 2.16-6.48 1.32-4.44 3.76-8.82 3.6-14.88-.06-2.19-1.04-4.39 0-6.48 .39-.07.41.23.72.24z"/>
 <path d="m135.141,58.327c2.79,1.02 6.94,6.63 2.16,8.16 2.7-3.04-.79-5.52-2.64-7.44-.13-.53.46-.339.48-.72z"/>
 <path d="m138.261,161.527c-.31,1.42-2.17,1.06-3.6,1.44-1.76.46-4.31,2.55-5.04.48 1.65-2.13 6.02-2.759 8.64-1.92z"/>
 <path d="m99.141,94.087c.07-1.58 2.33-2.08 3.6-1.68-.87.89-2.03,1.49-3.6,1.68z"/>
 <path d="m94.821,219.607c.39-.07.41.23.72.24-.82,3.36-4.33,4.6-6.24,6.96-.9,1.11-1.2,3.32-3.36,2.88-.65-1.89 1.17-4.06 2.4-5.52 1.75-2.07 3.82-3.56 6.48-4.56z"/>
 <path d="m88.581,214.807c1.77,1 4.03,1.77 4.56,3.6-2.79,1.88-4.99-1.08-7.2-2.4-1.46-.88-2.94-1.11-3.84-2.16-.14-.86.28-1.16.48-1.68 2.13-.01 4.2,1.62 6,2.64z"/>
 <path d="m84.501,244.087c.59,2.16 2.67,4.471 1.2,6.24-1.12.22-1.63-1.02-1.92-1.68-1.37-3.141-1.24-7.87-1.92-11.52 .41.01.62-.18.72-.48 .39-.07.41.23.72.24 .56,2.02.52,4.711 1.2,7.2z"/>
 <path d="m82.821,327.848c-2.46.35-2.35-4.24-3.12-7.92-.31-1.471-1.16-2.011-.48-3.36h.72c1.44,2.66.72,8.639 2.88,11.28z"/>
 <path d="m78.501,269.287c2.3,8.36 2.51,20.83 6.96,27.84-4.62-2.1-6.74-11.22-7.44-17.52-.6-5.43-1.15-10.51.72-15.12 .43.6.12,3.231-.24,4.8z"/>
 <path d="m82.581,229.927c-1.94,1.66-5.87-.38-9.12-1.68-2.25-.9-5.67-1.56-5.52-3.84 .35-.13.59-.37.72-.72 4.4,2.32 10.89,2.55 13.92,6.24z"/>
 <path d="m73.941,272.407c.53,10.88.47,25.24 0,34.8-2.69-8.43-1.92-15.439-1.68-24 .09-3.04.71-7.02.72-10.319 .08-.32.42-.381.48-.721 .28-.04.43.051.48.24z"/>
 <path d="m72.261,355.688c-.4.96-2.45.27-3.6.479v-.96c.95-.45 2.48.33 3.6.481z"/>
 <path d="m51.621 377.77c1.45 1.91 2.25 4.47 3.36 6.72-1.73-1.361-3.89-4.68-3.36-6.72z"/>
 <path d="m49.221 388.57c-2.49-1.38-4.71-4.21-4.8-7.2 1.85 2.151 3.06 4.941 4.8 7.2z"/>
 <path d="m32.421,191.767c.3.1.49.31.48.72-.58,2.19-2.78,3.32-4.8,4.8-2.24,1.64-3.95,4.12-6.48,5.04-.12-.41-.37-.68-.54-1.03-.12-.23-.2-.51-.18-.89 3.25-3.469 6.86-7.31 11.52-8.64z"/>
 <path d="m17.061,206.647c2.47,5.02.53,11.14 1.2,17.04-3.9-3.85-1.82-9.99-1.92-16.8 .34.02.68.04.72-.24z"/>
 <path d="m18.501,202.327c-1.72,3.37-7.63-1.93-10.32-3.6-1.67-1.04-3.9-1.38-3.04-3.5 .05-.11.1-.22.16-.34 5.48,1.4 8.79,4.97 13.2,7.44z"/>
</svg>
